<svg width="36" height="36" viewBox="0 0 36 36" fill="none" xmlns="http://www.w3.org/2000/svg">
<path d="M33.0001 12.75C33.0001 17.64 29.4001 21.675 24.7201 22.38V22.29C24.2551 16.47 19.5301 11.745 13.6651 11.28H13.6201C14.3251 6.6 18.3601 3 23.2501 3C28.6351 3 33.0001 7.365 33.0001 12.75Z" fill="#FF6A71"/>
<path d="M22.47 22.47C22.095 17.715 18.285 13.905 13.53 13.53C13.275 13.515 13.005 13.5 12.75 13.5C7.365 13.5 3 17.865 3 23.25C3 28.635 7.365 33 12.75 33C18.135 33 22.5 28.635 22.5 23.25C22.5 22.995 22.485 22.725 22.47 22.47ZM14.07 24.57L12.75 27L11.43 24.57L9 23.25L11.43 21.93L12.75 19.5L14.07 21.93L16.5 23.25L14.07 24.57Z" fill="#FFBD72"/>
</svg>
