<svg width="36" height="36" viewBox="0 0 36 36" fill="none" xmlns="http://www.w3.org/2000/svg">
<path d="M22.5 23.25C22.5 28.635 18.135 33 12.75 33C7.365 33 3 28.635 3 23.25C3 17.865 7.365 13.5 12.75 13.5C13.005 13.5 13.275 13.515 13.53 13.53C18.285 13.905 22.095 17.715 22.47 22.47C22.485 22.725 22.5 22.995 22.5 23.25Z" fill="#5C6EFE"/>
<path d="M33.0001 12.75C33.0001 17.64 29.4001 21.675 24.7201 22.38V22.29C24.2551 16.47 19.5301 11.745 13.6651 11.28H13.6201C14.3251 6.6 18.3601 3 23.2501 3C28.6351 3 33.0001 7.365 33.0001 12.75Z" fill="#90DEBA"/>
<path d="M8.385 3H4.5C3.675 3 3 3.675 3 4.5V8.385C3 9.72 4.62 10.395 5.565 9.45L9.45 5.565C10.38 4.62 9.72 3 8.385 3Z" fill="#90DEBA"/>
<path d="M27.6151 33H31.5001C32.3251 33 33.0001 32.325 33.0001 31.5V27.615C33.0001 26.28 31.3801 25.605 30.4351 26.55L26.5501 30.435C25.6201 31.38 26.2801 33 27.6151 33Z" fill="#5C6EFE"/>
</svg>
