<svg width="219" height="146" viewBox="0 0 219 146" fill="none" xmlns="http://www.w3.org/2000/svg">
<path fill-rule="evenodd" clip-rule="evenodd" d="M109.143 36.4974C109.143 56.6211 125.867 72.9383 145.703 72.9383V0.0612793C125.867 0.0612793 109.143 16.3784 109.143 36.5022V36.4974Z" fill="#0156CD"/>
<path fill-rule="evenodd" clip-rule="evenodd" d="M109.294 36.4974C109.294 56.6211 93.595 72.9383 72.7337 72.9383V0.0612793C93.595 0.0612793 109.294 16.3784 109.294 36.5022V36.4974Z" fill="#54AAF7"/>
<path d="M0 19.5381L19.5389 0H8.7847L0 8.78907V19.5381Z" fill="black"/>
<path d="M0 41.4706L41.4676 0H30.7182L0 30.7169V41.4706Z" fill="black"/>
<path d="M0 63.3984L63.401 0H52.6516L0 52.6494V63.3984Z" fill="black"/>
<path d="M12.4403 72.8913L72.8895 12.4399V1.69086L1.69086 72.8913H12.4403Z" fill="black"/>
<path d="M34.3737 72.8911L72.8894 34.3722V23.6232L23.6242 72.8911H34.3737Z" fill="black"/>
<path d="M56.3071 72.8912L72.8894 56.3049V45.5558L45.5529 72.8912H56.3071Z" fill="black"/>
<path d="M72.8894 72.8911V67.4836L67.4864 72.8911H72.8894Z" fill="black"/>
<path fill-rule="evenodd" clip-rule="evenodd" d="M218.229 109.304C218.229 129.427 201.916 145.745 181.787 145.745C161.658 145.745 145.344 129.432 145.344 109.304C145.344 89.1752 161.662 72.8628 181.787 72.8628C201.911 72.8628 218.229 89.1752 218.229 109.304Z" fill="black"/>
<path fill-rule="evenodd" clip-rule="evenodd" d="M148.193 1.47343C148.193 1.99294 147.772 2.41327 147.253 2.41327C146.733 2.41327 146.313 1.99294 146.313 1.47343C146.313 0.953929 146.733 0.5336 147.253 0.5336C147.772 0.5336 148.193 0.953929 148.193 1.47343Z" fill="black"/>
<path fill-rule="evenodd" clip-rule="evenodd" d="M154.025 1.47343C154.025 1.99294 153.605 2.41327 153.085 2.41327C152.566 2.41327 152.146 1.99294 152.146 1.47343C152.146 0.953929 152.566 0.5336 153.085 0.5336C153.605 0.5336 154.025 0.953929 154.025 1.47343Z" fill="black"/>
<path fill-rule="evenodd" clip-rule="evenodd" d="M159.853 1.47343C159.853 1.99294 159.433 2.41327 158.914 2.41327C158.394 2.41327 157.974 1.99294 157.974 1.47343C157.974 0.953929 158.394 0.5336 158.914 0.5336C159.433 0.5336 159.853 0.953929 159.853 1.47343Z" fill="black"/>
<path fill-rule="evenodd" clip-rule="evenodd" d="M165.682 1.47343C165.682 1.99294 165.261 2.41327 164.742 2.41327C164.222 2.41327 163.802 1.99294 163.802 1.47343C163.802 0.953929 164.222 0.5336 164.742 0.5336C165.261 0.5336 165.682 0.953929 165.682 1.47343Z" fill="black"/>
<path d="M170.57 2.41327C171.089 2.41327 171.51 1.99249 171.51 1.47343C171.51 0.954379 171.089 0.5336 170.57 0.5336C170.051 0.5336 169.63 0.954379 169.63 1.47343C169.63 1.99249 170.051 2.41327 170.57 2.41327Z" fill="black"/>
<path fill-rule="evenodd" clip-rule="evenodd" d="M177.338 1.47343C177.338 1.99294 176.917 2.41327 176.398 2.41327C175.878 2.41327 175.458 1.99294 175.458 1.47343C175.458 0.953929 175.878 0.5336 176.398 0.5336C176.917 0.5336 177.338 0.953929 177.338 1.47343Z" fill="black"/>
<path fill-rule="evenodd" clip-rule="evenodd" d="M183.166 1.47343C183.166 1.99294 182.746 2.41327 182.226 2.41327C181.707 2.41327 181.286 1.99294 181.286 1.47343C181.286 0.953929 181.707 0.5336 182.226 0.5336C182.746 0.5336 183.166 0.953929 183.166 1.47343Z" fill="black"/>
<path fill-rule="evenodd" clip-rule="evenodd" d="M188.999 1.47343C188.999 1.99294 188.578 2.41327 188.059 2.41327C187.539 2.41327 187.119 1.99294 187.119 1.47343C187.119 0.953929 187.539 0.5336 188.059 0.5336C188.578 0.5336 188.999 0.953929 188.999 1.47343Z" fill="black"/>
<path fill-rule="evenodd" clip-rule="evenodd" d="M194.827 1.47343C194.827 1.99294 194.407 2.41327 193.887 2.41327C193.368 2.41327 192.947 1.99294 192.947 1.47343C192.947 0.953929 193.368 0.5336 193.887 0.5336C194.407 0.5336 194.827 0.953929 194.827 1.47343Z" fill="black"/>
<path fill-rule="evenodd" clip-rule="evenodd" d="M200.655 1.47343C200.655 1.99294 200.235 2.41327 199.715 2.41327C199.196 2.41327 198.775 1.99294 198.775 1.47343C198.775 0.953929 199.196 0.5336 199.715 0.5336C200.235 0.5336 200.655 0.953929 200.655 1.47343Z" fill="black"/>
<path fill-rule="evenodd" clip-rule="evenodd" d="M206.483 1.47343C206.483 1.99294 206.063 2.41327 205.543 2.41327C205.024 2.41327 204.604 1.99294 204.604 1.47343C204.604 0.953929 205.024 0.5336 205.543 0.5336C206.063 0.5336 206.483 0.953929 206.483 1.47343Z" fill="black"/>
<path fill-rule="evenodd" clip-rule="evenodd" d="M212.311 1.47343C212.311 1.99294 211.891 2.41327 211.372 2.41327C210.852 2.41327 210.432 1.99294 210.432 1.47343C210.432 0.953929 210.852 0.5336 211.372 0.5336C211.891 0.5336 212.311 0.953929 212.311 1.47343Z" fill="black"/>
<path fill-rule="evenodd" clip-rule="evenodd" d="M218.14 1.47343C218.14 1.99294 217.719 2.41327 217.2 2.41327C216.68 2.41327 216.26 1.99294 216.26 1.47343C216.26 0.953929 216.68 0.5336 217.2 0.5336C217.719 0.5336 218.14 0.953929 218.14 1.47343Z" fill="black"/>
<path fill-rule="evenodd" clip-rule="evenodd" d="M148.193 7.30152C148.193 7.82102 147.772 8.24135 147.253 8.24135C146.733 8.24135 146.313 7.82102 146.313 7.30152C146.313 6.78202 146.733 6.36169 147.253 6.36169C147.772 6.36169 148.193 6.78202 148.193 7.30152Z" fill="black"/>
<path fill-rule="evenodd" clip-rule="evenodd" d="M154.025 7.30152C154.025 7.82102 153.605 8.24135 153.085 8.24135C152.566 8.24135 152.146 7.82102 152.146 7.30152C152.146 6.78202 152.566 6.36169 153.085 6.36169C153.605 6.36169 154.025 6.78202 154.025 7.30152Z" fill="black"/>
<path fill-rule="evenodd" clip-rule="evenodd" d="M159.853 7.30152C159.853 7.82102 159.433 8.24135 158.914 8.24135C158.394 8.24135 157.974 7.82102 157.974 7.30152C157.974 6.78202 158.394 6.36169 158.914 6.36169C159.433 6.36169 159.853 6.78202 159.853 7.30152Z" fill="black"/>
<path fill-rule="evenodd" clip-rule="evenodd" d="M165.682 7.30152C165.682 7.82102 165.261 8.24135 164.742 8.24135C164.222 8.24135 163.802 7.82102 163.802 7.30152C163.802 6.78202 164.222 6.36169 164.742 6.36169C165.261 6.36169 165.682 6.78202 165.682 7.30152Z" fill="black"/>
<path fill-rule="evenodd" clip-rule="evenodd" d="M171.51 7.30152C171.51 7.82102 171.089 8.24135 170.57 8.24135C170.05 8.24135 169.63 7.82102 169.63 7.30152C169.63 6.78202 170.05 6.36169 170.57 6.36169C171.089 6.36169 171.51 6.78202 171.51 7.30152Z" fill="black"/>
<path fill-rule="evenodd" clip-rule="evenodd" d="M177.338 7.30152C177.338 7.82102 176.917 8.24135 176.398 8.24135C175.878 8.24135 175.458 7.82102 175.458 7.30152C175.458 6.78202 175.878 6.36169 176.398 6.36169C176.917 6.36169 177.338 6.78202 177.338 7.30152Z" fill="black"/>
<path fill-rule="evenodd" clip-rule="evenodd" d="M183.166 7.30152C183.166 7.82102 182.746 8.24135 182.226 8.24135C181.707 8.24135 181.286 7.82102 181.286 7.30152C181.286 6.78202 181.707 6.36169 182.226 6.36169C182.746 6.36169 183.166 6.78202 183.166 7.30152Z" fill="black"/>
<path fill-rule="evenodd" clip-rule="evenodd" d="M188.999 7.30152C188.999 7.82102 188.578 8.24135 188.059 8.24135C187.539 8.24135 187.119 7.82102 187.119 7.30152C187.119 6.78202 187.539 6.36169 188.059 6.36169C188.578 6.36169 188.999 6.78202 188.999 7.30152Z" fill="black"/>
<path fill-rule="evenodd" clip-rule="evenodd" d="M194.827 7.30152C194.827 7.82102 194.407 8.24135 193.887 8.24135C193.368 8.24135 192.947 7.82102 192.947 7.30152C192.947 6.78202 193.368 6.36169 193.887 6.36169C194.407 6.36169 194.827 6.78202 194.827 7.30152Z" fill="black"/>
<path fill-rule="evenodd" clip-rule="evenodd" d="M200.655 7.30152C200.655 7.82102 200.235 8.24135 199.715 8.24135C199.196 8.24135 198.775 7.82102 198.775 7.30152C198.775 6.78202 199.196 6.36169 199.715 6.36169C200.235 6.36169 200.655 6.78202 200.655 7.30152Z" fill="black"/>
<path fill-rule="evenodd" clip-rule="evenodd" d="M206.483 7.30152C206.483 7.82102 206.063 8.24135 205.543 8.24135C205.024 8.24135 204.604 7.82102 204.604 7.30152C204.604 6.78202 205.024 6.36169 205.543 6.36169C206.063 6.36169 206.483 6.78202 206.483 7.30152Z" fill="black"/>
<path fill-rule="evenodd" clip-rule="evenodd" d="M212.311 7.30152C212.311 7.82102 211.891 8.24135 211.372 8.24135C210.852 8.24135 210.432 7.82102 210.432 7.30152C210.432 6.78202 210.852 6.36169 211.372 6.36169C211.891 6.36169 212.311 6.78202 212.311 7.30152Z" fill="black"/>
<path fill-rule="evenodd" clip-rule="evenodd" d="M218.14 7.30152C218.14 7.82102 217.719 8.24135 217.2 8.24135C216.68 8.24135 216.26 7.82102 216.26 7.30152C216.26 6.78202 216.68 6.36169 217.2 6.36169C217.719 6.36169 218.14 6.78202 218.14 7.30152Z" fill="black"/>
<path fill-rule="evenodd" clip-rule="evenodd" d="M148.193 13.1292C148.193 13.6487 147.772 14.0691 147.253 14.0691C146.733 14.0691 146.313 13.6487 146.313 13.1292C146.313 12.6097 146.733 12.1894 147.253 12.1894C147.772 12.1894 148.193 12.6097 148.193 13.1292Z" fill="black"/>
<path fill-rule="evenodd" clip-rule="evenodd" d="M154.025 13.1292C154.025 13.6487 153.605 14.0691 153.085 14.0691C152.566 14.0691 152.146 13.6487 152.146 13.1292C152.146 12.6097 152.566 12.1894 153.085 12.1894C153.605 12.1894 154.025 12.6097 154.025 13.1292Z" fill="black"/>
<path fill-rule="evenodd" clip-rule="evenodd" d="M159.853 13.1292C159.853 13.6487 159.433 14.0691 158.914 14.0691C158.394 14.0691 157.974 13.6487 157.974 13.1292C157.974 12.6097 158.394 12.1894 158.914 12.1894C159.433 12.1894 159.853 12.6097 159.853 13.1292Z" fill="black"/>
<path fill-rule="evenodd" clip-rule="evenodd" d="M165.682 13.1292C165.682 13.6487 165.261 14.0691 164.742 14.0691C164.222 14.0691 163.802 13.6487 163.802 13.1292C163.802 12.6097 164.222 12.1894 164.742 12.1894C165.261 12.1894 165.682 12.6097 165.682 13.1292Z" fill="black"/>
<path fill-rule="evenodd" clip-rule="evenodd" d="M171.51 13.1292C171.51 13.6487 171.089 14.0691 170.57 14.0691C170.05 14.0691 169.63 13.6487 169.63 13.1292C169.63 12.6097 170.05 12.1894 170.57 12.1894C171.089 12.1894 171.51 12.6097 171.51 13.1292Z" fill="black"/>
<path fill-rule="evenodd" clip-rule="evenodd" d="M177.338 13.1292C177.338 13.6487 176.917 14.0691 176.398 14.0691C175.878 14.0691 175.458 13.6487 175.458 13.1292C175.458 12.6097 175.878 12.1894 176.398 12.1894C176.917 12.1894 177.338 12.6097 177.338 13.1292Z" fill="black"/>
<path fill-rule="evenodd" clip-rule="evenodd" d="M183.166 13.1292C183.166 13.6487 182.746 14.0691 182.226 14.0691C181.707 14.0691 181.286 13.6487 181.286 13.1292C181.286 12.6097 181.707 12.1894 182.226 12.1894C182.746 12.1894 183.166 12.6097 183.166 13.1292Z" fill="black"/>
<path fill-rule="evenodd" clip-rule="evenodd" d="M188.999 13.1292C188.999 13.6487 188.578 14.0691 188.059 14.0691C187.539 14.0691 187.119 13.6487 187.119 13.1292C187.119 12.6097 187.539 12.1894 188.059 12.1894C188.578 12.1894 188.999 12.6097 188.999 13.1292Z" fill="black"/>
<path fill-rule="evenodd" clip-rule="evenodd" d="M194.827 13.1292C194.827 13.6487 194.407 14.0691 193.887 14.0691C193.368 14.0691 192.947 13.6487 192.947 13.1292C192.947 12.6097 193.368 12.1894 193.887 12.1894C194.407 12.1894 194.827 12.6097 194.827 13.1292Z" fill="black"/>
<path fill-rule="evenodd" clip-rule="evenodd" d="M200.655 13.1292C200.655 13.6487 200.235 14.0691 199.715 14.0691C199.196 14.0691 198.775 13.6487 198.775 13.1292C198.775 12.6097 199.196 12.1894 199.715 12.1894C200.235 12.1894 200.655 12.6097 200.655 13.1292Z" fill="black"/>
<path fill-rule="evenodd" clip-rule="evenodd" d="M206.483 13.1292C206.483 13.6487 206.063 14.0691 205.543 14.0691C205.024 14.0691 204.604 13.6487 204.604 13.1292C204.604 12.6097 205.024 12.1894 205.543 12.1894C206.063 12.1894 206.483 12.6097 206.483 13.1292Z" fill="black"/>
<path fill-rule="evenodd" clip-rule="evenodd" d="M212.311 13.1292C212.311 13.6487 211.891 14.0691 211.372 14.0691C210.852 14.0691 210.432 13.6487 210.432 13.1292C210.432 12.6097 210.852 12.1894 211.372 12.1894C211.891 12.1894 212.311 12.6097 212.311 13.1292Z" fill="black"/>
<path fill-rule="evenodd" clip-rule="evenodd" d="M218.14 13.1292C218.14 13.6487 217.719 14.0691 217.2 14.0691C216.68 14.0691 216.26 13.6487 216.26 13.1292C216.26 12.6097 216.68 12.1894 217.2 12.1894C217.719 12.1894 218.14 12.6097 218.14 13.1292Z" fill="black"/>
<path fill-rule="evenodd" clip-rule="evenodd" d="M148.193 18.9572C148.193 19.4767 147.772 19.8971 147.253 19.8971C146.733 19.8971 146.313 19.4767 146.313 18.9572C146.313 18.4377 146.733 18.0174 147.253 18.0174C147.772 18.0174 148.193 18.4377 148.193 18.9572Z" fill="black"/>
<path fill-rule="evenodd" clip-rule="evenodd" d="M154.025 18.9572C154.025 19.4767 153.605 19.8971 153.085 19.8971C152.566 19.8971 152.146 19.4767 152.146 18.9572C152.146 18.4377 152.566 18.0174 153.085 18.0174C153.605 18.0174 154.025 18.4377 154.025 18.9572Z" fill="black"/>
<path fill-rule="evenodd" clip-rule="evenodd" d="M159.853 18.9572C159.853 19.4767 159.433 19.8971 158.914 19.8971C158.394 19.8971 157.974 19.4767 157.974 18.9572C157.974 18.4377 158.394 18.0174 158.914 18.0174C159.433 18.0174 159.853 18.4377 159.853 18.9572Z" fill="black"/>
<path fill-rule="evenodd" clip-rule="evenodd" d="M165.682 18.9572C165.682 19.4767 165.261 19.8971 164.742 19.8971C164.222 19.8971 163.802 19.4767 163.802 18.9572C163.802 18.4377 164.222 18.0174 164.742 18.0174C165.261 18.0174 165.682 18.4377 165.682 18.9572Z" fill="black"/>
<path d="M170.57 19.8971C171.089 19.8971 171.51 19.4763 171.51 18.9572C171.51 18.4382 171.089 18.0174 170.57 18.0174C170.051 18.0174 169.63 18.4382 169.63 18.9572C169.63 19.4763 170.051 19.8971 170.57 19.8971Z" fill="black"/>
<path fill-rule="evenodd" clip-rule="evenodd" d="M177.338 18.9572C177.338 19.4767 176.917 19.8971 176.398 19.8971C175.878 19.8971 175.458 19.4767 175.458 18.9572C175.458 18.4377 175.878 18.0174 176.398 18.0174C176.917 18.0174 177.338 18.4377 177.338 18.9572Z" fill="black"/>
<path fill-rule="evenodd" clip-rule="evenodd" d="M183.166 18.9572C183.166 19.4767 182.746 19.8971 182.226 19.8971C181.707 19.8971 181.286 19.4767 181.286 18.9572C181.286 18.4377 181.707 18.0174 182.226 18.0174C182.746 18.0174 183.166 18.4377 183.166 18.9572Z" fill="black"/>
<path fill-rule="evenodd" clip-rule="evenodd" d="M188.999 18.9572C188.999 19.4767 188.578 19.8971 188.059 19.8971C187.539 19.8971 187.119 19.4767 187.119 18.9572C187.119 18.4377 187.539 18.0174 188.059 18.0174C188.578 18.0174 188.999 18.4377 188.999 18.9572Z" fill="black"/>
<path fill-rule="evenodd" clip-rule="evenodd" d="M194.827 18.9572C194.827 19.4767 194.407 19.8971 193.887 19.8971C193.368 19.8971 192.947 19.4767 192.947 18.9572C192.947 18.4377 193.368 18.0174 193.887 18.0174C194.407 18.0174 194.827 18.4377 194.827 18.9572Z" fill="black"/>
<path fill-rule="evenodd" clip-rule="evenodd" d="M200.655 18.9572C200.655 19.4767 200.235 19.8971 199.715 19.8971C199.196 19.8971 198.775 19.4767 198.775 18.9572C198.775 18.4377 199.196 18.0174 199.715 18.0174C200.235 18.0174 200.655 18.4377 200.655 18.9572Z" fill="black"/>
<path fill-rule="evenodd" clip-rule="evenodd" d="M206.483 18.9572C206.483 19.4767 206.063 19.8971 205.543 19.8971C205.024 19.8971 204.604 19.4767 204.604 18.9572C204.604 18.4377 205.024 18.0174 205.543 18.0174C206.063 18.0174 206.483 18.4377 206.483 18.9572Z" fill="black"/>
<path fill-rule="evenodd" clip-rule="evenodd" d="M212.311 18.9572C212.311 19.4767 211.891 19.8971 211.372 19.8971C210.852 19.8971 210.432 19.4767 210.432 18.9572C210.432 18.4377 210.852 18.0174 211.372 18.0174C211.891 18.0174 212.311 18.4377 212.311 18.9572Z" fill="black"/>
<path fill-rule="evenodd" clip-rule="evenodd" d="M218.14 18.9572C218.14 19.4767 217.719 19.8971 217.2 19.8971C216.68 19.8971 216.26 19.4767 216.26 18.9572C216.26 18.4377 216.68 18.0174 217.2 18.0174C217.719 18.0174 218.14 18.4377 218.14 18.9572Z" fill="black"/>
<path fill-rule="evenodd" clip-rule="evenodd" d="M148.193 24.7896C148.193 25.3091 147.772 25.7294 147.253 25.7294C146.733 25.7294 146.313 25.3091 146.313 24.7896C146.313 24.2701 146.733 23.8498 147.253 23.8498C147.772 23.8498 148.193 24.2701 148.193 24.7896Z" fill="black"/>
<path fill-rule="evenodd" clip-rule="evenodd" d="M154.025 24.7896C154.025 25.3091 153.605 25.7294 153.085 25.7294C152.566 25.7294 152.146 25.3091 152.146 24.7896C152.146 24.2701 152.566 23.8498 153.085 23.8498C153.605 23.8498 154.025 24.2701 154.025 24.7896Z" fill="black"/>
<path fill-rule="evenodd" clip-rule="evenodd" d="M159.853 24.7896C159.853 25.3091 159.433 25.7294 158.914 25.7294C158.394 25.7294 157.974 25.3091 157.974 24.7896C157.974 24.2701 158.394 23.8498 158.914 23.8498C159.433 23.8498 159.853 24.2701 159.853 24.7896Z" fill="black"/>
<path fill-rule="evenodd" clip-rule="evenodd" d="M165.682 24.7896C165.682 25.3091 165.261 25.7294 164.742 25.7294C164.222 25.7294 163.802 25.3091 163.802 24.7896C163.802 24.2701 164.222 23.8498 164.742 23.8498C165.261 23.8498 165.682 24.2701 165.682 24.7896Z" fill="black"/>
<path fill-rule="evenodd" clip-rule="evenodd" d="M171.51 24.7896C171.51 25.3091 171.089 25.7294 170.57 25.7294C170.05 25.7294 169.63 25.3091 169.63 24.7896C169.63 24.2701 170.05 23.8498 170.57 23.8498C171.089 23.8498 171.51 24.2701 171.51 24.7896Z" fill="black"/>
<path fill-rule="evenodd" clip-rule="evenodd" d="M177.338 24.7896C177.338 25.3091 176.917 25.7294 176.398 25.7294C175.878 25.7294 175.458 25.3091 175.458 24.7896C175.458 24.2701 175.878 23.8498 176.398 23.8498C176.917 23.8498 177.338 24.2701 177.338 24.7896Z" fill="black"/>
<path fill-rule="evenodd" clip-rule="evenodd" d="M183.166 24.7896C183.166 25.3091 182.746 25.7294 182.226 25.7294C181.707 25.7294 181.286 25.3091 181.286 24.7896C181.286 24.2701 181.707 23.8498 182.226 23.8498C182.746 23.8498 183.166 24.2701 183.166 24.7896Z" fill="black"/>
<path fill-rule="evenodd" clip-rule="evenodd" d="M188.999 24.7896C188.999 25.3091 188.578 25.7294 188.059 25.7294C187.539 25.7294 187.119 25.3091 187.119 24.7896C187.119 24.2701 187.539 23.8498 188.059 23.8498C188.578 23.8498 188.999 24.2701 188.999 24.7896Z" fill="black"/>
<path fill-rule="evenodd" clip-rule="evenodd" d="M194.827 24.7896C194.827 25.3091 194.407 25.7294 193.887 25.7294C193.368 25.7294 192.947 25.3091 192.947 24.7896C192.947 24.2701 193.368 23.8498 193.887 23.8498C194.407 23.8498 194.827 24.2701 194.827 24.7896Z" fill="black"/>
<path fill-rule="evenodd" clip-rule="evenodd" d="M200.655 24.7896C200.655 25.3091 200.235 25.7294 199.715 25.7294C199.196 25.7294 198.775 25.3091 198.775 24.7896C198.775 24.2701 199.196 23.8498 199.715 23.8498C200.235 23.8498 200.655 24.2701 200.655 24.7896Z" fill="black"/>
<path fill-rule="evenodd" clip-rule="evenodd" d="M206.483 24.7896C206.483 25.3091 206.063 25.7294 205.543 25.7294C205.024 25.7294 204.604 25.3091 204.604 24.7896C204.604 24.2701 205.024 23.8498 205.543 23.8498C206.063 23.8498 206.483 24.2701 206.483 24.7896Z" fill="black"/>
<path fill-rule="evenodd" clip-rule="evenodd" d="M212.311 24.7896C212.311 25.3091 211.891 25.7294 211.372 25.7294C210.852 25.7294 210.432 25.3091 210.432 24.7896C210.432 24.2701 210.852 23.8498 211.372 23.8498C211.891 23.8498 212.311 24.2701 212.311 24.7896Z" fill="black"/>
<path fill-rule="evenodd" clip-rule="evenodd" d="M218.14 24.7896C218.14 25.3091 217.719 25.7294 217.2 25.7294C216.68 25.7294 216.26 25.3091 216.26 24.7896C216.26 24.2701 216.68 23.8498 217.2 23.8498C217.719 23.8498 218.14 24.2701 218.14 24.7896Z" fill="black"/>
<path fill-rule="evenodd" clip-rule="evenodd" d="M148.193 30.6176C148.193 31.1371 147.772 31.5574 147.253 31.5574C146.733 31.5574 146.313 31.1371 146.313 30.6176C146.313 30.0981 146.733 29.6778 147.253 29.6778C147.772 29.6778 148.193 30.0981 148.193 30.6176Z" fill="black"/>
<path fill-rule="evenodd" clip-rule="evenodd" d="M154.025 30.6176C154.025 31.1371 153.605 31.5574 153.085 31.5574C152.566 31.5574 152.146 31.1371 152.146 30.6176C152.146 30.0981 152.566 29.6778 153.085 29.6778C153.605 29.6778 154.025 30.0981 154.025 30.6176Z" fill="black"/>
<path fill-rule="evenodd" clip-rule="evenodd" d="M159.853 30.6176C159.853 31.1371 159.433 31.5574 158.914 31.5574C158.394 31.5574 157.974 31.1371 157.974 30.6176C157.974 30.0981 158.394 29.6778 158.914 29.6778C159.433 29.6778 159.853 30.0981 159.853 30.6176Z" fill="black"/>
<path fill-rule="evenodd" clip-rule="evenodd" d="M165.682 30.6176C165.682 31.1371 165.261 31.5574 164.742 31.5574C164.222 31.5574 163.802 31.1371 163.802 30.6176C163.802 30.0981 164.222 29.6778 164.742 29.6778C165.261 29.6778 165.682 30.0981 165.682 30.6176Z" fill="black"/>
<path fill-rule="evenodd" clip-rule="evenodd" d="M171.51 30.6176C171.51 31.1371 171.089 31.5574 170.57 31.5574C170.05 31.5574 169.63 31.1371 169.63 30.6176C169.63 30.0981 170.05 29.6778 170.57 29.6778C171.089 29.6778 171.51 30.0981 171.51 30.6176Z" fill="black"/>
<path fill-rule="evenodd" clip-rule="evenodd" d="M177.338 30.6176C177.338 31.1371 176.917 31.5574 176.398 31.5574C175.878 31.5574 175.458 31.1371 175.458 30.6176C175.458 30.0981 175.878 29.6778 176.398 29.6778C176.917 29.6778 177.338 30.0981 177.338 30.6176Z" fill="black"/>
<path fill-rule="evenodd" clip-rule="evenodd" d="M183.166 30.6176C183.166 31.1371 182.746 31.5574 182.226 31.5574C181.707 31.5574 181.286 31.1371 181.286 30.6176C181.286 30.0981 181.707 29.6778 182.226 29.6778C182.746 29.6778 183.166 30.0981 183.166 30.6176Z" fill="black"/>
<path fill-rule="evenodd" clip-rule="evenodd" d="M188.999 30.6176C188.999 31.1371 188.578 31.5574 188.059 31.5574C187.539 31.5574 187.119 31.1371 187.119 30.6176C187.119 30.0981 187.539 29.6778 188.059 29.6778C188.578 29.6778 188.999 30.0981 188.999 30.6176Z" fill="black"/>
<path fill-rule="evenodd" clip-rule="evenodd" d="M194.827 30.6176C194.827 31.1371 194.407 31.5574 193.887 31.5574C193.368 31.5574 192.947 31.1371 192.947 30.6176C192.947 30.0981 193.368 29.6778 193.887 29.6778C194.407 29.6778 194.827 30.0981 194.827 30.6176Z" fill="black"/>
<path fill-rule="evenodd" clip-rule="evenodd" d="M200.655 30.6176C200.655 31.1371 200.235 31.5574 199.715 31.5574C199.196 31.5574 198.775 31.1371 198.775 30.6176C198.775 30.0981 199.196 29.6778 199.715 29.6778C200.235 29.6778 200.655 30.0981 200.655 30.6176Z" fill="black"/>
<path fill-rule="evenodd" clip-rule="evenodd" d="M206.483 30.6176C206.483 31.1371 206.063 31.5574 205.543 31.5574C205.024 31.5574 204.604 31.1371 204.604 30.6176C204.604 30.0981 205.024 29.6778 205.543 29.6778C206.063 29.6778 206.483 30.0981 206.483 30.6176Z" fill="black"/>
<path fill-rule="evenodd" clip-rule="evenodd" d="M212.311 30.6176C212.311 31.1371 211.891 31.5574 211.372 31.5574C210.852 31.5574 210.432 31.1371 210.432 30.6176C210.432 30.0981 210.852 29.6778 211.372 29.6778C211.891 29.6778 212.311 30.0981 212.311 30.6176Z" fill="black"/>
<path fill-rule="evenodd" clip-rule="evenodd" d="M218.14 30.6176C218.14 31.1371 217.719 31.5574 217.2 31.5574C216.68 31.5574 216.26 31.1371 216.26 30.6176C216.26 30.0981 216.68 29.6778 217.2 29.6778C217.719 29.6778 218.14 30.0981 218.14 30.6176Z" fill="black"/>
<path fill-rule="evenodd" clip-rule="evenodd" d="M148.193 36.4454C148.193 36.9649 147.772 37.3853 147.253 37.3853C146.733 37.3853 146.313 36.9649 146.313 36.4454C146.313 35.9259 146.733 35.5056 147.253 35.5056C147.772 35.5056 148.193 35.9259 148.193 36.4454Z" fill="black"/>
<path fill-rule="evenodd" clip-rule="evenodd" d="M154.025 36.4454C154.025 36.9649 153.605 37.3853 153.085 37.3853C152.566 37.3853 152.146 36.9649 152.146 36.4454C152.146 35.9259 152.566 35.5056 153.085 35.5056C153.605 35.5056 154.025 35.9259 154.025 36.4454Z" fill="black"/>
<path fill-rule="evenodd" clip-rule="evenodd" d="M159.853 36.4454C159.853 36.9649 159.433 37.3853 158.914 37.3853C158.394 37.3853 157.974 36.9649 157.974 36.4454C157.974 35.9259 158.394 35.5056 158.914 35.5056C159.433 35.5056 159.853 35.9259 159.853 36.4454Z" fill="black"/>
<path fill-rule="evenodd" clip-rule="evenodd" d="M165.682 36.4454C165.682 36.9649 165.261 37.3853 164.742 37.3853C164.222 37.3853 163.802 36.9649 163.802 36.4454C163.802 35.9259 164.222 35.5056 164.742 35.5056C165.261 35.5056 165.682 35.9259 165.682 36.4454Z" fill="black"/>
<path fill-rule="evenodd" clip-rule="evenodd" d="M171.51 36.4454C171.51 36.9649 171.089 37.3853 170.57 37.3853C170.05 37.3853 169.63 36.9649 169.63 36.4454C169.63 35.9259 170.05 35.5056 170.57 35.5056C171.089 35.5056 171.51 35.9259 171.51 36.4454Z" fill="black"/>
<path fill-rule="evenodd" clip-rule="evenodd" d="M177.338 36.4454C177.338 36.9649 176.917 37.3853 176.398 37.3853C175.878 37.3853 175.458 36.9649 175.458 36.4454C175.458 35.9259 175.878 35.5056 176.398 35.5056C176.917 35.5056 177.338 35.9259 177.338 36.4454Z" fill="black"/>
<path fill-rule="evenodd" clip-rule="evenodd" d="M183.166 36.4454C183.166 36.9649 182.746 37.3853 182.226 37.3853C181.707 37.3853 181.286 36.9649 181.286 36.4454C181.286 35.9259 181.707 35.5056 182.226 35.5056C182.746 35.5056 183.166 35.9259 183.166 36.4454Z" fill="black"/>
<path fill-rule="evenodd" clip-rule="evenodd" d="M188.999 36.4454C188.999 36.9649 188.578 37.3853 188.059 37.3853C187.539 37.3853 187.119 36.9649 187.119 36.4454C187.119 35.9259 187.539 35.5056 188.059 35.5056C188.578 35.5056 188.999 35.9259 188.999 36.4454Z" fill="black"/>
<path fill-rule="evenodd" clip-rule="evenodd" d="M194.827 36.4454C194.827 36.9649 194.407 37.3853 193.887 37.3853C193.368 37.3853 192.947 36.9649 192.947 36.4454C192.947 35.9259 193.368 35.5056 193.887 35.5056C194.407 35.5056 194.827 35.9259 194.827 36.4454Z" fill="black"/>
<path fill-rule="evenodd" clip-rule="evenodd" d="M200.655 36.4454C200.655 36.9649 200.235 37.3853 199.715 37.3853C199.196 37.3853 198.775 36.9649 198.775 36.4454C198.775 35.9259 199.196 35.5056 199.715 35.5056C200.235 35.5056 200.655 35.9259 200.655 36.4454Z" fill="black"/>
<path fill-rule="evenodd" clip-rule="evenodd" d="M206.483 36.4454C206.483 36.9649 206.063 37.3853 205.543 37.3853C205.024 37.3853 204.604 36.9649 204.604 36.4454C204.604 35.9259 205.024 35.5056 205.543 35.5056C206.063 35.5056 206.483 35.9259 206.483 36.4454Z" fill="black"/>
<path fill-rule="evenodd" clip-rule="evenodd" d="M212.311 36.4454C212.311 36.9649 211.891 37.3853 211.372 37.3853C210.852 37.3853 210.432 36.9649 210.432 36.4454C210.432 35.9259 210.852 35.5056 211.372 35.5056C211.891 35.5056 212.311 35.9259 212.311 36.4454Z" fill="black"/>
<path fill-rule="evenodd" clip-rule="evenodd" d="M218.14 36.4454C218.14 36.9649 217.719 37.3853 217.2 37.3853C216.68 37.3853 216.26 36.9649 216.26 36.4454C216.26 35.9259 216.68 35.5056 217.2 35.5056C217.719 35.5056 218.14 35.9259 218.14 36.4454Z" fill="black"/>
<path fill-rule="evenodd" clip-rule="evenodd" d="M148.193 42.2735C148.193 42.793 147.772 43.2133 147.253 43.2133C146.733 43.2133 146.313 42.793 146.313 42.2735C146.313 41.754 146.733 41.3337 147.253 41.3337C147.772 41.3337 148.193 41.754 148.193 42.2735Z" fill="black"/>
<path fill-rule="evenodd" clip-rule="evenodd" d="M154.025 42.2735C154.025 42.793 153.605 43.2133 153.085 43.2133C152.566 43.2133 152.146 42.793 152.146 42.2735C152.146 41.754 152.566 41.3337 153.085 41.3337C153.605 41.3337 154.025 41.754 154.025 42.2735Z" fill="black"/>
<path fill-rule="evenodd" clip-rule="evenodd" d="M159.853 42.2735C159.853 42.793 159.433 43.2133 158.914 43.2133C158.394 43.2133 157.974 42.793 157.974 42.2735C157.974 41.754 158.394 41.3337 158.914 41.3337C159.433 41.3337 159.853 41.754 159.853 42.2735Z" fill="black"/>
<path fill-rule="evenodd" clip-rule="evenodd" d="M165.682 42.2735C165.682 42.793 165.261 43.2133 164.742 43.2133C164.222 43.2133 163.802 42.793 163.802 42.2735C163.802 41.754 164.222 41.3337 164.742 41.3337C165.261 41.3337 165.682 41.754 165.682 42.2735Z" fill="black"/>
<path fill-rule="evenodd" clip-rule="evenodd" d="M171.51 42.2735C171.51 42.793 171.089 43.2133 170.57 43.2133C170.05 43.2133 169.63 42.793 169.63 42.2735C169.63 41.754 170.05 41.3337 170.57 41.3337C171.089 41.3337 171.51 41.754 171.51 42.2735Z" fill="black"/>
<path fill-rule="evenodd" clip-rule="evenodd" d="M177.338 42.2735C177.338 42.793 176.917 43.2133 176.398 43.2133C175.878 43.2133 175.458 42.793 175.458 42.2735C175.458 41.754 175.878 41.3337 176.398 41.3337C176.917 41.3337 177.338 41.754 177.338 42.2735Z" fill="black"/>
<path fill-rule="evenodd" clip-rule="evenodd" d="M183.166 42.2735C183.166 42.793 182.746 43.2133 182.226 43.2133C181.707 43.2133 181.286 42.793 181.286 42.2735C181.286 41.754 181.707 41.3337 182.226 41.3337C182.746 41.3337 183.166 41.754 183.166 42.2735Z" fill="black"/>
<path fill-rule="evenodd" clip-rule="evenodd" d="M188.999 42.2735C188.999 42.793 188.578 43.2133 188.059 43.2133C187.539 43.2133 187.119 42.793 187.119 42.2735C187.119 41.754 187.539 41.3337 188.059 41.3337C188.578 41.3337 188.999 41.754 188.999 42.2735Z" fill="black"/>
<path fill-rule="evenodd" clip-rule="evenodd" d="M194.827 42.2735C194.827 42.793 194.407 43.2133 193.887 43.2133C193.368 43.2133 192.947 42.793 192.947 42.2735C192.947 41.754 193.368 41.3337 193.887 41.3337C194.407 41.3337 194.827 41.754 194.827 42.2735Z" fill="black"/>
<path fill-rule="evenodd" clip-rule="evenodd" d="M200.655 42.2735C200.655 42.793 200.235 43.2133 199.715 43.2133C199.196 43.2133 198.775 42.793 198.775 42.2735C198.775 41.754 199.196 41.3337 199.715 41.3337C200.235 41.3337 200.655 41.754 200.655 42.2735Z" fill="black"/>
<path fill-rule="evenodd" clip-rule="evenodd" d="M206.483 42.2735C206.483 42.793 206.063 43.2133 205.543 43.2133C205.024 43.2133 204.604 42.793 204.604 42.2735C204.604 41.754 205.024 41.3337 205.543 41.3337C206.063 41.3337 206.483 41.754 206.483 42.2735Z" fill="black"/>
<path fill-rule="evenodd" clip-rule="evenodd" d="M212.311 42.2735C212.311 42.793 211.891 43.2133 211.372 43.2133C210.852 43.2133 210.432 42.793 210.432 42.2735C210.432 41.754 210.852 41.3337 211.372 41.3337C211.891 41.3337 212.311 41.754 212.311 42.2735Z" fill="black"/>
<path fill-rule="evenodd" clip-rule="evenodd" d="M218.14 42.2735C218.14 42.793 217.719 43.2133 217.2 43.2133C216.68 43.2133 216.26 42.793 216.26 42.2735C216.26 41.754 216.68 41.3337 217.2 41.3337C217.719 41.3337 218.14 41.754 218.14 42.2735Z" fill="black"/>
<path fill-rule="evenodd" clip-rule="evenodd" d="M148.193 48.1013C148.193 48.6208 147.772 49.0411 147.253 49.0411C146.733 49.0411 146.313 48.6208 146.313 48.1013C146.313 47.5818 146.733 47.1615 147.253 47.1615C147.772 47.1615 148.193 47.5818 148.193 48.1013Z" fill="black"/>
<path fill-rule="evenodd" clip-rule="evenodd" d="M154.025 48.1013C154.025 48.6208 153.605 49.0411 153.085 49.0411C152.566 49.0411 152.146 48.6208 152.146 48.1013C152.146 47.5818 152.566 47.1615 153.085 47.1615C153.605 47.1615 154.025 47.5818 154.025 48.1013Z" fill="black"/>
<path fill-rule="evenodd" clip-rule="evenodd" d="M159.853 48.1013C159.853 48.6208 159.433 49.0411 158.914 49.0411C158.394 49.0411 157.974 48.6208 157.974 48.1013C157.974 47.5818 158.394 47.1615 158.914 47.1615C159.433 47.1615 159.853 47.5818 159.853 48.1013Z" fill="black"/>
<path fill-rule="evenodd" clip-rule="evenodd" d="M165.682 48.1013C165.682 48.6208 165.261 49.0411 164.742 49.0411C164.222 49.0411 163.802 48.6208 163.802 48.1013C163.802 47.5818 164.222 47.1615 164.742 47.1615C165.261 47.1615 165.682 47.5818 165.682 48.1013Z" fill="black"/>
<path fill-rule="evenodd" clip-rule="evenodd" d="M171.51 48.1013C171.51 48.6208 171.089 49.0411 170.57 49.0411C170.05 49.0411 169.63 48.6208 169.63 48.1013C169.63 47.5818 170.05 47.1615 170.57 47.1615C171.089 47.1615 171.51 47.5818 171.51 48.1013Z" fill="black"/>
<path fill-rule="evenodd" clip-rule="evenodd" d="M177.338 48.1013C177.338 48.6208 176.917 49.0411 176.398 49.0411C175.878 49.0411 175.458 48.6208 175.458 48.1013C175.458 47.5818 175.878 47.1615 176.398 47.1615C176.917 47.1615 177.338 47.5818 177.338 48.1013Z" fill="black"/>
<path fill-rule="evenodd" clip-rule="evenodd" d="M183.166 48.1013C183.166 48.6208 182.746 49.0411 182.226 49.0411C181.707 49.0411 181.286 48.6208 181.286 48.1013C181.286 47.5818 181.707 47.1615 182.226 47.1615C182.746 47.1615 183.166 47.5818 183.166 48.1013Z" fill="black"/>
<path fill-rule="evenodd" clip-rule="evenodd" d="M188.999 48.1013C188.999 48.6208 188.578 49.0411 188.059 49.0411C187.539 49.0411 187.119 48.6208 187.119 48.1013C187.119 47.5818 187.539 47.1615 188.059 47.1615C188.578 47.1615 188.999 47.5818 188.999 48.1013Z" fill="black"/>
<path fill-rule="evenodd" clip-rule="evenodd" d="M194.827 48.1013C194.827 48.6208 194.407 49.0411 193.887 49.0411C193.368 49.0411 192.947 48.6208 192.947 48.1013C192.947 47.5818 193.368 47.1615 193.887 47.1615C194.407 47.1615 194.827 47.5818 194.827 48.1013Z" fill="black"/>
<path fill-rule="evenodd" clip-rule="evenodd" d="M200.655 48.1013C200.655 48.6208 200.235 49.0411 199.715 49.0411C199.196 49.0411 198.775 48.6208 198.775 48.1013C198.775 47.5818 199.196 47.1615 199.715 47.1615C200.235 47.1615 200.655 47.5818 200.655 48.1013Z" fill="black"/>
<path fill-rule="evenodd" clip-rule="evenodd" d="M206.483 48.1013C206.483 48.6208 206.063 49.0411 205.543 49.0411C205.024 49.0411 204.604 48.6208 204.604 48.1013C204.604 47.5818 205.024 47.1615 205.543 47.1615C206.063 47.1615 206.483 47.5818 206.483 48.1013Z" fill="black"/>
<path fill-rule="evenodd" clip-rule="evenodd" d="M212.311 48.1013C212.311 48.6208 211.891 49.0411 211.372 49.0411C210.852 49.0411 210.432 48.6208 210.432 48.1013C210.432 47.5818 210.852 47.1615 211.372 47.1615C211.891 47.1615 212.311 47.5818 212.311 48.1013Z" fill="black"/>
<path fill-rule="evenodd" clip-rule="evenodd" d="M218.14 48.1013C218.14 48.6208 217.719 49.0411 217.2 49.0411C216.68 49.0411 216.26 48.6208 216.26 48.1013C216.26 47.5818 216.68 47.1615 217.2 47.1615C217.719 47.1615 218.14 47.5818 218.14 48.1013Z" fill="black"/>
<path fill-rule="evenodd" clip-rule="evenodd" d="M148.193 53.934C148.193 54.4535 147.772 54.8739 147.253 54.8739C146.733 54.8739 146.313 54.4535 146.313 53.934C146.313 53.4145 146.733 52.9942 147.253 52.9942C147.772 52.9942 148.193 53.4145 148.193 53.934Z" fill="black"/>
<path fill-rule="evenodd" clip-rule="evenodd" d="M154.025 53.934C154.025 54.4535 153.605 54.8739 153.085 54.8739C152.566 54.8739 152.146 54.4535 152.146 53.934C152.146 53.4145 152.566 52.9942 153.085 52.9942C153.605 52.9942 154.025 53.4145 154.025 53.934Z" fill="black"/>
<path fill-rule="evenodd" clip-rule="evenodd" d="M159.853 53.934C159.853 54.4535 159.433 54.8739 158.914 54.8739C158.394 54.8739 157.974 54.4535 157.974 53.934C157.974 53.4145 158.394 52.9942 158.914 52.9942C159.433 52.9942 159.853 53.4145 159.853 53.934Z" fill="black"/>
<path fill-rule="evenodd" clip-rule="evenodd" d="M165.682 53.934C165.682 54.4535 165.261 54.8739 164.742 54.8739C164.222 54.8739 163.802 54.4535 163.802 53.934C163.802 53.4145 164.222 52.9942 164.742 52.9942C165.261 52.9942 165.682 53.4145 165.682 53.934Z" fill="black"/>
<path fill-rule="evenodd" clip-rule="evenodd" d="M171.51 53.934C171.51 54.4535 171.089 54.8739 170.57 54.8739C170.05 54.8739 169.63 54.4535 169.63 53.934C169.63 53.4145 170.05 52.9942 170.57 52.9942C171.089 52.9942 171.51 53.4145 171.51 53.934Z" fill="black"/>
<path fill-rule="evenodd" clip-rule="evenodd" d="M177.338 53.934C177.338 54.4535 176.917 54.8739 176.398 54.8739C175.878 54.8739 175.458 54.4535 175.458 53.934C175.458 53.4145 175.878 52.9942 176.398 52.9942C176.917 52.9942 177.338 53.4145 177.338 53.934Z" fill="black"/>
<path fill-rule="evenodd" clip-rule="evenodd" d="M183.166 53.934C183.166 54.4535 182.746 54.8739 182.226 54.8739C181.707 54.8739 181.286 54.4535 181.286 53.934C181.286 53.4145 181.707 52.9942 182.226 52.9942C182.746 52.9942 183.166 53.4145 183.166 53.934Z" fill="black"/>
<path fill-rule="evenodd" clip-rule="evenodd" d="M188.999 53.934C188.999 54.4535 188.578 54.8739 188.059 54.8739C187.539 54.8739 187.119 54.4535 187.119 53.934C187.119 53.4145 187.539 52.9942 188.059 52.9942C188.578 52.9942 188.999 53.4145 188.999 53.934Z" fill="black"/>
<path fill-rule="evenodd" clip-rule="evenodd" d="M194.827 53.934C194.827 54.4535 194.407 54.8739 193.887 54.8739C193.368 54.8739 192.947 54.4535 192.947 53.934C192.947 53.4145 193.368 52.9942 193.887 52.9942C194.407 52.9942 194.827 53.4145 194.827 53.934Z" fill="black"/>
<path fill-rule="evenodd" clip-rule="evenodd" d="M200.655 53.934C200.655 54.4535 200.235 54.8739 199.715 54.8739C199.196 54.8739 198.775 54.4535 198.775 53.934C198.775 53.4145 199.196 52.9942 199.715 52.9942C200.235 52.9942 200.655 53.4145 200.655 53.934Z" fill="black"/>
<path fill-rule="evenodd" clip-rule="evenodd" d="M206.483 53.934C206.483 54.4535 206.063 54.8739 205.543 54.8739C205.024 54.8739 204.604 54.4535 204.604 53.934C204.604 53.4145 205.024 52.9942 205.543 52.9942C206.063 52.9942 206.483 53.4145 206.483 53.934Z" fill="black"/>
<path fill-rule="evenodd" clip-rule="evenodd" d="M212.311 53.934C212.311 54.4535 211.891 54.8739 211.372 54.8739C210.852 54.8739 210.432 54.4535 210.432 53.934C210.432 53.4145 210.852 52.9942 211.372 52.9942C211.891 52.9942 212.311 53.4145 212.311 53.934Z" fill="black"/>
<path fill-rule="evenodd" clip-rule="evenodd" d="M218.14 53.934C218.14 54.4535 217.719 54.8739 217.2 54.8739C216.68 54.8739 216.26 54.4535 216.26 53.934C216.26 53.4145 216.68 52.9942 217.2 52.9942C217.719 52.9942 218.14 53.4145 218.14 53.934Z" fill="black"/>
<path fill-rule="evenodd" clip-rule="evenodd" d="M148.193 59.7619C148.193 60.2814 147.772 60.7017 147.253 60.7017C146.733 60.7017 146.313 60.2814 146.313 59.7619C146.313 59.2424 146.733 58.8221 147.253 58.8221C147.772 58.8221 148.193 59.2424 148.193 59.7619Z" fill="black"/>
<path fill-rule="evenodd" clip-rule="evenodd" d="M154.025 59.7619C154.025 60.2814 153.605 60.7017 153.085 60.7017C152.566 60.7017 152.146 60.2814 152.146 59.7619C152.146 59.2424 152.566 58.8221 153.085 58.8221C153.605 58.8221 154.025 59.2424 154.025 59.7619Z" fill="black"/>
<path fill-rule="evenodd" clip-rule="evenodd" d="M159.853 59.7619C159.853 60.2814 159.433 60.7017 158.914 60.7017C158.394 60.7017 157.974 60.2814 157.974 59.7619C157.974 59.2424 158.394 58.8221 158.914 58.8221C159.433 58.8221 159.853 59.2424 159.853 59.7619Z" fill="black"/>
<path fill-rule="evenodd" clip-rule="evenodd" d="M165.682 59.7619C165.682 60.2814 165.261 60.7017 164.742 60.7017C164.222 60.7017 163.802 60.2814 163.802 59.7619C163.802 59.2424 164.222 58.8221 164.742 58.8221C165.261 58.8221 165.682 59.2424 165.682 59.7619Z" fill="black"/>
<path fill-rule="evenodd" clip-rule="evenodd" d="M171.51 59.7619C171.51 60.2814 171.089 60.7017 170.57 60.7017C170.05 60.7017 169.63 60.2814 169.63 59.7619C169.63 59.2424 170.05 58.8221 170.57 58.8221C171.089 58.8221 171.51 59.2424 171.51 59.7619Z" fill="black"/>
<path fill-rule="evenodd" clip-rule="evenodd" d="M177.338 59.7619C177.338 60.2814 176.917 60.7017 176.398 60.7017C175.878 60.7017 175.458 60.2814 175.458 59.7619C175.458 59.2424 175.878 58.8221 176.398 58.8221C176.917 58.8221 177.338 59.2424 177.338 59.7619Z" fill="black"/>
<path fill-rule="evenodd" clip-rule="evenodd" d="M183.166 59.7619C183.166 60.2814 182.746 60.7017 182.226 60.7017C181.707 60.7017 181.286 60.2814 181.286 59.7619C181.286 59.2424 181.707 58.8221 182.226 58.8221C182.746 58.8221 183.166 59.2424 183.166 59.7619Z" fill="black"/>
<path fill-rule="evenodd" clip-rule="evenodd" d="M188.999 59.7619C188.999 60.2814 188.578 60.7017 188.059 60.7017C187.539 60.7017 187.119 60.2814 187.119 59.7619C187.119 59.2424 187.539 58.8221 188.059 58.8221C188.578 58.8221 188.999 59.2424 188.999 59.7619Z" fill="black"/>
<path fill-rule="evenodd" clip-rule="evenodd" d="M194.827 59.7619C194.827 60.2814 194.407 60.7017 193.887 60.7017C193.368 60.7017 192.947 60.2814 192.947 59.7619C192.947 59.2424 193.368 58.8221 193.887 58.8221C194.407 58.8221 194.827 59.2424 194.827 59.7619Z" fill="black"/>
<path fill-rule="evenodd" clip-rule="evenodd" d="M200.655 59.7619C200.655 60.2814 200.235 60.7017 199.715 60.7017C199.196 60.7017 198.775 60.2814 198.775 59.7619C198.775 59.2424 199.196 58.8221 199.715 58.8221C200.235 58.8221 200.655 59.2424 200.655 59.7619Z" fill="black"/>
<path fill-rule="evenodd" clip-rule="evenodd" d="M206.483 59.7619C206.483 60.2814 206.063 60.7017 205.543 60.7017C205.024 60.7017 204.604 60.2814 204.604 59.7619C204.604 59.2424 205.024 58.8221 205.543 58.8221C206.063 58.8221 206.483 59.2424 206.483 59.7619Z" fill="black"/>
<path fill-rule="evenodd" clip-rule="evenodd" d="M212.311 59.7619C212.311 60.2814 211.891 60.7017 211.372 60.7017C210.852 60.7017 210.432 60.2814 210.432 59.7619C210.432 59.2424 210.852 58.8221 211.372 58.8221C211.891 58.8221 212.311 59.2424 212.311 59.7619Z" fill="black"/>
<path fill-rule="evenodd" clip-rule="evenodd" d="M218.14 59.7619C218.14 60.2814 217.719 60.7017 217.2 60.7017C216.68 60.7017 216.26 60.2814 216.26 59.7619C216.26 59.2424 216.68 58.8221 217.2 58.8221C217.719 58.8221 218.14 59.2424 218.14 59.7619Z" fill="black"/>
<path fill-rule="evenodd" clip-rule="evenodd" d="M148.193 65.5897C148.193 66.1092 147.772 66.5295 147.253 66.5295C146.733 66.5295 146.313 66.1092 146.313 65.5897C146.313 65.0702 146.733 64.6498 147.253 64.6498C147.772 64.6498 148.193 65.0702 148.193 65.5897Z" fill="black"/>
<path fill-rule="evenodd" clip-rule="evenodd" d="M154.025 65.5897C154.025 66.1092 153.605 66.5295 153.085 66.5295C152.566 66.5295 152.146 66.1092 152.146 65.5897C152.146 65.0702 152.566 64.6498 153.085 64.6498C153.605 64.6498 154.025 65.0702 154.025 65.5897Z" fill="black"/>
<path fill-rule="evenodd" clip-rule="evenodd" d="M159.853 65.5897C159.853 66.1092 159.433 66.5295 158.914 66.5295C158.394 66.5295 157.974 66.1092 157.974 65.5897C157.974 65.0702 158.394 64.6498 158.914 64.6498C159.433 64.6498 159.853 65.0702 159.853 65.5897Z" fill="black"/>
<path fill-rule="evenodd" clip-rule="evenodd" d="M165.682 65.5897C165.682 66.1092 165.261 66.5295 164.742 66.5295C164.222 66.5295 163.802 66.1092 163.802 65.5897C163.802 65.0702 164.222 64.6498 164.742 64.6498C165.261 64.6498 165.682 65.0702 165.682 65.5897Z" fill="black"/>
<path fill-rule="evenodd" clip-rule="evenodd" d="M171.51 65.5897C171.51 66.1092 171.089 66.5295 170.57 66.5295C170.05 66.5295 169.63 66.1092 169.63 65.5897C169.63 65.0702 170.05 64.6498 170.57 64.6498C171.089 64.6498 171.51 65.0702 171.51 65.5897Z" fill="black"/>
<path fill-rule="evenodd" clip-rule="evenodd" d="M177.338 65.5897C177.338 66.1092 176.917 66.5295 176.398 66.5295C175.878 66.5295 175.458 66.1092 175.458 65.5897C175.458 65.0702 175.878 64.6498 176.398 64.6498C176.917 64.6498 177.338 65.0702 177.338 65.5897Z" fill="black"/>
<path fill-rule="evenodd" clip-rule="evenodd" d="M183.166 65.5897C183.166 66.1092 182.746 66.5295 182.226 66.5295C181.707 66.5295 181.286 66.1092 181.286 65.5897C181.286 65.0702 181.707 64.6498 182.226 64.6498C182.746 64.6498 183.166 65.0702 183.166 65.5897Z" fill="black"/>
<path fill-rule="evenodd" clip-rule="evenodd" d="M188.999 65.5897C188.999 66.1092 188.578 66.5295 188.059 66.5295C187.539 66.5295 187.119 66.1092 187.119 65.5897C187.119 65.0702 187.539 64.6498 188.059 64.6498C188.578 64.6498 188.999 65.0702 188.999 65.5897Z" fill="black"/>
<path fill-rule="evenodd" clip-rule="evenodd" d="M194.827 65.5897C194.827 66.1092 194.407 66.5295 193.887 66.5295C193.368 66.5295 192.947 66.1092 192.947 65.5897C192.947 65.0702 193.368 64.6498 193.887 64.6498C194.407 64.6498 194.827 65.0702 194.827 65.5897Z" fill="black"/>
<path fill-rule="evenodd" clip-rule="evenodd" d="M200.655 65.5897C200.655 66.1092 200.235 66.5295 199.715 66.5295C199.196 66.5295 198.775 66.1092 198.775 65.5897C198.775 65.0702 199.196 64.6498 199.715 64.6498C200.235 64.6498 200.655 65.0702 200.655 65.5897Z" fill="black"/>
<path fill-rule="evenodd" clip-rule="evenodd" d="M206.483 65.5897C206.483 66.1092 206.063 66.5295 205.543 66.5295C205.024 66.5295 204.604 66.1092 204.604 65.5897C204.604 65.0702 205.024 64.6498 205.543 64.6498C206.063 64.6498 206.483 65.0702 206.483 65.5897Z" fill="black"/>
<path fill-rule="evenodd" clip-rule="evenodd" d="M212.311 65.5897C212.311 66.1092 211.891 66.5295 211.372 66.5295C210.852 66.5295 210.432 66.1092 210.432 65.5897C210.432 65.0702 210.852 64.6498 211.372 64.6498C211.891 64.6498 212.311 65.0702 212.311 65.5897Z" fill="black"/>
<path fill-rule="evenodd" clip-rule="evenodd" d="M218.14 65.5897C218.14 66.1092 217.719 66.5295 217.2 66.5295C216.68 66.5295 216.26 66.1092 216.26 65.5897C216.26 65.0702 216.68 64.6498 217.2 64.6498C217.719 64.6498 218.14 65.0702 218.14 65.5897Z" fill="black"/>
<path fill-rule="evenodd" clip-rule="evenodd" d="M148.193 71.4177C148.193 71.9372 147.772 72.3576 147.253 72.3576C146.733 72.3576 146.313 71.9372 146.313 71.4177C146.313 70.8982 146.733 70.4779 147.253 70.4779C147.772 70.4779 148.193 70.8982 148.193 71.4177Z" fill="black"/>
<path fill-rule="evenodd" clip-rule="evenodd" d="M154.025 71.4177C154.025 71.9372 153.605 72.3576 153.085 72.3576C152.566 72.3576 152.146 71.9372 152.146 71.4177C152.146 70.8982 152.566 70.4779 153.085 70.4779C153.605 70.4779 154.025 70.8982 154.025 71.4177Z" fill="black"/>
<path fill-rule="evenodd" clip-rule="evenodd" d="M159.853 71.4177C159.853 71.9372 159.433 72.3576 158.914 72.3576C158.394 72.3576 157.974 71.9372 157.974 71.4177C157.974 70.8982 158.394 70.4779 158.914 70.4779C159.433 70.4779 159.853 70.8982 159.853 71.4177Z" fill="black"/>
<path fill-rule="evenodd" clip-rule="evenodd" d="M165.682 71.4177C165.682 71.9372 165.261 72.3576 164.742 72.3576C164.222 72.3576 163.802 71.9372 163.802 71.4177C163.802 70.8982 164.222 70.4779 164.742 70.4779C165.261 70.4779 165.682 70.8982 165.682 71.4177Z" fill="black"/>
<path fill-rule="evenodd" clip-rule="evenodd" d="M171.51 71.4177C171.51 71.9372 171.089 72.3576 170.57 72.3576C170.05 72.3576 169.63 71.9372 169.63 71.4177C169.63 70.8982 170.05 70.4779 170.57 70.4779C171.089 70.4779 171.51 70.8982 171.51 71.4177Z" fill="black"/>
<path fill-rule="evenodd" clip-rule="evenodd" d="M177.338 71.4177C177.338 71.9372 176.917 72.3576 176.398 72.3576C175.878 72.3576 175.458 71.9372 175.458 71.4177C175.458 70.8982 175.878 70.4779 176.398 70.4779C176.917 70.4779 177.338 70.8982 177.338 71.4177Z" fill="black"/>
<path fill-rule="evenodd" clip-rule="evenodd" d="M183.166 71.4177C183.166 71.9372 182.746 72.3576 182.226 72.3576C181.707 72.3576 181.286 71.9372 181.286 71.4177C181.286 70.8982 181.707 70.4779 182.226 70.4779C182.746 70.4779 183.166 70.8982 183.166 71.4177Z" fill="black"/>
<path fill-rule="evenodd" clip-rule="evenodd" d="M188.999 71.4177C188.999 71.9372 188.578 72.3576 188.059 72.3576C187.539 72.3576 187.119 71.9372 187.119 71.4177C187.119 70.8982 187.539 70.4779 188.059 70.4779C188.578 70.4779 188.999 70.8982 188.999 71.4177Z" fill="black"/>
<path fill-rule="evenodd" clip-rule="evenodd" d="M194.827 71.4177C194.827 71.9372 194.407 72.3576 193.887 72.3576C193.368 72.3576 192.947 71.9372 192.947 71.4177C192.947 70.8982 193.368 70.4779 193.887 70.4779C194.407 70.4779 194.827 70.8982 194.827 71.4177Z" fill="black"/>
<path fill-rule="evenodd" clip-rule="evenodd" d="M200.655 71.4177C200.655 71.9372 200.235 72.3576 199.715 72.3576C199.196 72.3576 198.775 71.9372 198.775 71.4177C198.775 70.8982 199.196 70.4779 199.715 70.4779C200.235 70.4779 200.655 70.8982 200.655 71.4177Z" fill="black"/>
<path fill-rule="evenodd" clip-rule="evenodd" d="M206.483 71.4177C206.483 71.9372 206.063 72.3576 205.543 72.3576C205.024 72.3576 204.604 71.9372 204.604 71.4177C204.604 70.8982 205.024 70.4779 205.543 70.4779C206.063 70.4779 206.483 70.8982 206.483 71.4177Z" fill="black"/>
<path fill-rule="evenodd" clip-rule="evenodd" d="M212.311 71.4177C212.311 71.9372 211.891 72.3576 211.372 72.3576C210.852 72.3576 210.432 71.9372 210.432 71.4177C210.432 70.8982 210.852 70.4779 211.372 70.4779C211.891 70.4779 212.311 70.8982 212.311 71.4177Z" fill="black"/>
<path fill-rule="evenodd" clip-rule="evenodd" d="M218.14 71.4177C218.14 71.9372 217.719 72.3576 217.2 72.3576C216.68 72.3576 216.26 71.9372 216.26 71.4177C216.26 70.8982 216.68 70.4779 217.2 70.4779C217.719 70.4779 218.14 70.8982 218.14 71.4177Z" fill="black"/>
<path d="M0 140.54L5.23775 145.778H7.03723L0 138.741V140.54Z" fill="black"/>
<path d="M0 133.971L11.8027 145.778H13.6069L0 132.171V133.971Z" fill="black"/>
<path d="M0 127.406L18.3723 145.778H20.1765L0 125.602V127.406Z" fill="black"/>
<path d="M0 120.837L24.942 145.778H26.7461L0 119.033V120.837Z" fill="black"/>
<path d="M0 114.267L31.5116 145.778H33.3158L0 112.463V114.267Z" fill="black"/>
<path d="M0 107.698L38.0812 145.778H39.8854L0 105.894V107.698Z" fill="black"/>
<path d="M0 101.128L44.6509 145.777H46.455L0 99.3243V101.128Z" fill="black"/>
<path d="M0 94.5592L51.2205 145.778H53.0247L0 92.7551V94.5592Z" fill="black"/>
<path d="M0 87.9898L57.7902 145.778H59.5944L0 86.1857V87.9898Z" fill="black"/>
<path d="M0 81.4206L64.3598 145.778H66.164L0 79.6165V81.4206Z" fill="black"/>
<path d="M0 74.8511L70.9295 145.778H72.7336L0 73.047V74.8511Z" fill="black"/>
<path d="M4.60498 72.891L72.8895 141.173V139.369L6.40913 72.891H4.60498Z" fill="black"/>
<path d="M11.1746 72.891L72.8895 134.603V132.799L12.9787 72.891H11.1746Z" fill="black"/>
<path d="M17.7441 72.891L72.8895 128.034V126.23L19.5483 72.891H17.7441Z" fill="black"/>
<path d="M24.3138 72.891L72.8895 121.465V119.661L26.118 72.891H24.3138Z" fill="black"/>
<path d="M30.8835 72.891L72.8895 114.895V113.091L32.6877 72.891H30.8835Z" fill="black"/>
<path d="M37.4532 72.891L72.8895 108.326V106.522L39.2573 72.891H37.4532Z" fill="black"/>
<path d="M44.0229 72.891L72.8896 101.757V99.9524L45.8271 72.891H44.0229Z" fill="black"/>
<path d="M50.5925 72.891L72.8896 95.1872V93.3878L52.3966 72.891H50.5925Z" fill="black"/>
<path d="M57.1622 72.891L72.8896 88.6225V86.8184L58.9616 72.891H57.1622Z" fill="black"/>
<path d="M63.727 72.891L72.8895 82.0532V80.2491L65.5311 72.891H63.727Z" fill="black"/>
<path d="M70.2966 72.891L72.8895 75.4838V73.6797L72.1008 72.891H70.2966Z" fill="black"/>
<path fill-rule="evenodd" clip-rule="evenodd" d="M0 72.891L72.8894 145.777H0V72.891Z" fill="#00A5A6"/>
<path fill-rule="evenodd" clip-rule="evenodd" d="M109.327 72.6881C89.2027 72.6881 72.8848 89.0005 72.8848 109.129C72.8848 129.257 89.198 145.57 109.327 145.57C129.456 145.57 145.77 129.257 145.77 109.129C145.77 89.0005 129.456 72.6881 109.327 72.6881ZM109.327 128.129C98.8328 128.129 90.322 119.623 90.322 109.124C90.322 98.6255 98.8281 90.1198 109.327 90.1198C119.826 90.1198 128.332 98.6255 128.332 109.124C128.332 119.623 119.826 128.129 109.327 128.129Z" fill="#FFCB51"/>
</svg>
