<svg width="37" height="36" viewBox="0 0 37 36" fill="none" xmlns="http://www.w3.org/2000/svg">
<g clip-path="url(#clip0_344_7785)">
<path d="M18.1154 36C28.1203 36 36.2309 27.9411 36.2309 18C36.2309 8.05887 28.1203 0 18.1154 0C8.11055 0 0 8.05887 0 18C0 27.9411 8.11055 36 18.1154 36Z" fill="#3671E9"/>
<path d="M18.5069 8.18164L11.0108 21.3752C9.91929 20.8233 9.00507 19.9788 8.37173 18.9372C7.73839 17.8957 7.41124 16.6987 7.42732 15.4819C7.42732 11.5612 10.5396 8.19268 16.2794 8.19268L18.5069 8.18164Z" fill="white"/>
<path d="M18.5066 27.7477H25.5514C25.5514 27.7477 28.8037 24.2754 28.8037 19.9085C28.8037 14.7331 23.6551 14.6448 23.6551 14.6448L24.0886 13.9004C24.4222 13.3183 24.5961 12.6595 24.593 11.9897C24.5898 11.3199 24.4098 10.6627 24.0709 10.0838C23.7319 9.5048 23.246 9.0244 22.6616 8.6906C22.0772 8.3568 21.4148 8.1813 20.7408 8.18164V8.18164L16.8193 15.1705C17.8664 15.2809 22.4814 16.001 22.4814 20.0587C22.4814 23.9485 18.5066 27.7477 18.5066 27.7477Z" fill="white"/>
<path d="M9.77686 27.7477C10.331 27.8098 10.8888 27.8341 11.4463 27.8206C15.4678 27.8206 20.314 25.1699 20.314 20.4319C20.314 17.4235 16.7727 17.1429 15.7257 17.1187L9.77686 27.7477Z" fill="white"/>
</g>
<defs>
<clipPath id="clip0_344_7785">
<rect width="36.2309" height="36" fill="white"/>
</clipPath>
</defs>
</svg>
