<svg width="24" height="24" viewBox="0 0 24 24" fill="none" xmlns="http://www.w3.org/2000/svg">
<g clip-path="url(#clip0_330_7860)">
<path d="M12 0C5.37188 0 0 5.37188 0 12C0 18.6281 5.37188 24 12 24C18.6281 24 24 18.6281 24 12C24 5.37188 18.6281 0 12 0ZM19.4906 19.4859C18.5156 20.4609 17.3859 21.225 16.125 21.7547C14.8219 22.3078 13.4344 22.5844 12 22.5844C10.5703 22.5844 9.18281 22.3031 7.875 21.7547C6.61406 21.2203 5.47969 20.4563 4.50937 19.4859C3.53437 18.5109 2.77031 17.3812 2.24063 16.1203C1.6875 14.8172 1.40625 13.4297 1.40625 12C1.40625 10.5703 1.6875 9.18281 2.23594 7.875C2.77031 6.61406 3.53437 5.47969 4.50469 4.50937C5.48437 3.53437 6.61406 2.77031 7.875 2.23594C9.18281 1.6875 10.5703 1.40625 12 1.40625C13.4297 1.40625 14.8172 1.6875 16.125 2.23594C17.3859 2.77031 18.5203 3.53438 19.4906 4.50469C20.4656 5.47969 21.2297 6.60937 21.7594 7.87031C22.3125 9.17344 22.5891 10.5609 22.5891 11.9953C22.5891 13.425 22.3078 14.8125 21.7594 16.1203C21.225 17.3812 20.4609 18.5156 19.4906 19.4859Z" fill="#707D95"/>
<path d="M16.8593 7.90763C15.9531 7.48362 14.9841 7.17546 13.971 7C13.8466 7.22494 13.7013 7.52749 13.601 7.76816C12.5241 7.60621 11.4571 7.60621 10.4 7.76816C10.2998 7.52749 10.1512 7.22494 10.0256 7C9.01147 7.17546 8.04136 7.48475 7.13511 7.90987C5.30721 10.6721 4.81169 13.3657 5.05945 16.021C6.27181 16.9264 7.44674 17.4764 8.60184 17.8363C8.88704 17.4437 9.14139 17.0265 9.36052 16.5867C8.94319 16.4282 8.54348 16.2325 8.16579 16.0053C8.26599 15.931 8.364 15.8534 8.45869 15.7736C10.7623 16.851 13.2652 16.851 15.5413 15.7736C15.6371 15.8534 15.7351 15.931 15.8342 16.0053C15.4554 16.2336 15.0546 16.4293 14.6372 16.5879C14.8563 17.0265 15.1096 17.4449 15.3959 17.8374C16.5521 17.4775 17.7281 16.9275 18.9405 16.021C19.2312 12.9428 18.4439 10.2739 16.8593 7.90763ZM9.67435 14.388C8.98284 14.388 8.41574 13.7424 8.41574 12.9563C8.41574 12.1701 8.97073 11.5235 9.67435 11.5235C10.378 11.5235 10.9451 12.169 10.933 12.9563C10.9341 13.7424 10.378 14.388 9.67435 14.388ZM14.3256 14.388C13.6341 14.388 13.067 13.7424 13.067 12.9563C13.067 12.1701 13.622 11.5235 14.3256 11.5235C15.0292 11.5235 15.5963 12.169 15.5842 12.9563C15.5842 13.7424 15.0292 14.388 14.3256 14.388Z" fill="#707D95"/>
</g>
<defs>
<clipPath id="clip0_330_7860">
<rect width="24" height="24" fill="white"/>
</clipPath>
</defs>
</svg>
