<svg width="24" height="24" viewBox="0 0 24 24" fill="none" xmlns="http://www.w3.org/2000/svg">
<g clip-path="url(#clip0_330_7871)">
<path d="M12 0C5.37188 0 0 5.37188 0 12C0 18.6281 5.37188 24 12 24C18.6281 24 24 18.6281 24 12C24 5.37188 18.6281 0 12 0ZM19.4906 19.4859C18.5156 20.4609 17.3859 21.225 16.125 21.7547C14.8219 22.3078 13.4344 22.5844 12 22.5844C10.5703 22.5844 9.18281 22.3031 7.875 21.7547C6.61406 21.2203 5.47969 20.4563 4.50937 19.4859C3.53437 18.5109 2.77031 17.3812 2.24063 16.1203C1.6875 14.8172 1.40625 13.4297 1.40625 12C1.40625 10.5703 1.6875 9.18281 2.23594 7.875C2.77031 6.61406 3.53437 5.47969 4.50469 4.50937C5.48437 3.53437 6.61406 2.77031 7.875 2.23594C9.18281 1.6875 10.5703 1.40625 12 1.40625C13.4297 1.40625 14.8172 1.6875 16.125 2.23594C17.3859 2.77031 18.5203 3.53438 19.4906 4.50469C20.4656 5.47969 21.2297 6.60937 21.7594 7.87031C22.3125 9.17344 22.5891 10.5609 22.5891 11.9953C22.5891 13.425 22.3078 14.8125 21.7594 16.1203C21.225 17.3812 20.4609 18.5156 19.4906 19.4859Z" fill="#707D95"/>
<path d="M13.5843 7.90786C14.0671 7.90786 14.5827 8.05786 14.5827 8.05786L14.8921 6.22036C14.8921 6.22036 14.2358 5.99536 12.6702 5.99536C11.7093 5.99536 11.1515 6.36099 10.7437 6.90005C10.3593 7.41099 10.3452 8.2313 10.3452 8.76099V9.96567H9.10303V11.761H10.3452V17.9954H12.6702V11.761H14.5124L14.6483 9.96567H12.6702V8.56411C12.6702 8.0813 13.1015 7.90786 13.5843 7.90786Z" fill="#707D95"/>
</g>
<defs>
<clipPath id="clip0_330_7871">
<rect width="24" height="24" fill="white"/>
</clipPath>
</defs>
</svg>
