<svg width="24" height="24" viewBox="0 0 24 24" fill="none" xmlns="http://www.w3.org/2000/svg">
<g clip-path="url(#clip0_330_7865)">
<path d="M12 0C5.37188 0 0 5.37188 0 12C0 18.6281 5.37188 24 12 24C18.6281 24 24 18.6281 24 12C24 5.37188 18.6281 0 12 0ZM19.4906 19.4859C18.5156 20.4609 17.3859 21.225 16.125 21.7547C14.8219 22.3078 13.4344 22.5844 12 22.5844C10.5703 22.5844 9.18281 22.3031 7.875 21.7547C6.61406 21.2203 5.47969 20.4563 4.50937 19.4859C3.53437 18.5109 2.77031 17.3812 2.24063 16.1203C1.6875 14.8172 1.40625 13.4297 1.40625 12C1.40625 10.5703 1.6875 9.18281 2.23594 7.875C2.77031 6.61406 3.53437 5.47969 4.50469 4.50937C5.48437 3.53437 6.61406 2.77031 7.875 2.23594C9.18281 1.6875 10.5703 1.40625 12 1.40625C13.4297 1.40625 14.8172 1.6875 16.125 2.23594C17.3859 2.77031 18.5203 3.53438 19.4906 4.50469C20.4656 5.47969 21.2297 6.60937 21.7594 7.87031C22.3125 9.17344 22.5891 10.5609 22.5891 11.9953C22.5891 13.425 22.3078 14.8125 21.7594 16.1203C21.225 17.3812 20.4609 18.5156 19.4906 19.4859Z" fill="#707D95"/>
<path d="M17.2266 9.66557C17.2688 8.72339 17.1423 7.80932 16.8235 6.9187C16.7813 6.8062 16.7298 6.76401 16.6126 6.79682C16.3501 6.87651 16.0782 6.93745 15.8204 7.0312C15.1079 7.28901 14.4563 7.66401 13.8235 8.07182C13.7579 8.11401 13.6594 8.14214 13.5798 8.12807C12.5438 7.94526 11.5032 7.95464 10.4626 8.11401C10.3594 8.12807 10.2282 8.10464 10.1438 8.05307C9.40788 7.57495 8.65788 7.1062 7.80007 6.8812C7.09225 6.6937 7.23757 6.6562 7.036 7.29839C6.79694 8.06714 6.70319 8.86401 6.75475 9.67026C6.75944 9.72651 6.71725 9.79682 6.67975 9.84839C6.37038 10.2187 6.13132 10.6265 5.986 11.0859C5.70475 11.9765 5.761 12.8765 5.93913 13.7718C6.29069 15.5296 7.47663 16.7624 9.22975 17.0671C10.1344 17.2265 11.0673 17.2406 11.9157 17.3109C12.8626 17.2406 13.7391 17.2359 14.5923 17.0999C16.0829 16.8609 17.2079 16.0687 17.7704 14.6296C17.9673 14.1281 18.0751 13.5796 18.1407 13.0453C18.286 11.864 18.0844 10.7578 17.2782 9.82495C17.2501 9.78745 17.2266 9.72182 17.2266 9.66557ZM16.4579 14.7234C16.3032 15.4546 15.8766 15.9562 15.1641 16.214C14.4751 16.4671 13.7626 16.5703 13.036 16.6171C12.6844 16.6406 12.3329 16.6218 11.9813 16.6218C11.0344 16.6406 10.0876 16.6031 9.1735 16.3312C8.02507 15.989 7.50944 15.3046 7.47663 14.1046C7.46257 13.6781 7.50944 13.2656 7.711 12.8812C8.10944 12.1078 8.7985 11.8359 9.61413 11.8218C10.0594 11.8171 10.5094 11.8546 10.9594 11.8968C11.9016 11.9812 12.8344 11.8921 13.7719 11.8406C14.1844 11.8171 14.6063 11.8078 15.0094 11.8781C15.8766 12.0281 16.5329 12.8906 16.5469 13.8609C16.5469 14.1468 16.5141 14.4421 16.4579 14.7234Z" fill="#707D95"/>
<path d="M9.33286 13.1156C9.07505 13.3828 8.98599 13.7203 8.97192 14.0203C8.97192 14.4703 9.10317 14.8312 9.33286 15.0656C9.65161 15.389 10.0875 15.3796 10.3922 15.0515C10.8516 14.5546 10.8469 13.6218 10.3922 13.1296C10.0875 12.7968 9.64224 12.7921 9.33286 13.1156Z" fill="#707D95"/>
<path d="M13.6501 13.0782C13.1251 13.561 13.1251 14.6251 13.6501 15.1032C13.9548 15.3797 14.3673 15.3657 14.6532 15.0704C14.9157 14.7985 15.0095 14.4563 15.0188 14.086C15.0095 13.7157 14.9157 13.3782 14.6485 13.1063C14.3626 12.811 13.9501 12.8016 13.6501 13.0782Z" fill="#707D95"/>
</g>
<defs>
<clipPath id="clip0_330_7865">
<rect width="24" height="24" fill="white"/>
</clipPath>
</defs>
</svg>
