<svg width="24" height="24" viewBox="0 0 24 24" fill="none" xmlns="http://www.w3.org/2000/svg">
<g clip-path="url(#clip0_330_7854)">
<path d="M12 0C5.37188 0 0 5.37188 0 12C0 18.6281 5.37188 24 12 24C18.6281 24 24 18.6281 24 12C24 5.37188 18.6281 0 12 0ZM19.4906 19.4859C18.5156 20.4609 17.3859 21.225 16.125 21.7547C14.8219 22.3078 13.4344 22.5844 12 22.5844C10.5703 22.5844 9.18281 22.3031 7.875 21.7547C6.61406 21.2203 5.47969 20.4563 4.50937 19.4859C3.53437 18.5109 2.77031 17.3812 2.24063 16.1203C1.6875 14.8172 1.40625 13.4297 1.40625 12C1.40625 10.5703 1.6875 9.18281 2.23594 7.875C2.77031 6.61406 3.53437 5.47969 4.50469 4.50937C5.48437 3.53437 6.61406 2.77031 7.875 2.23594C9.18281 1.6875 10.5703 1.40625 12 1.40625C13.4297 1.40625 14.8172 1.6875 16.125 2.23594C17.3859 2.77031 18.5203 3.53438 19.4906 4.50469C20.4656 5.47969 21.2297 6.60937 21.7594 7.87031C22.3125 9.17344 22.5891 10.5609 22.5891 11.9953C22.5891 13.425 22.3078 14.8125 21.7594 16.1203C21.225 17.3812 20.4609 18.5156 19.4906 19.4859Z" fill="#707D95"/>
<path d="M8.64375 9.53442H6.30469V17.0204H8.64375V9.53442Z" fill="#707D95"/>
<path d="M7.42505 6C6.56255 6 5.99536 6.55781 5.99536 7.29844C5.99536 8.025 6.5438 8.59687 7.39224 8.59687H7.41099C8.29224 8.59687 8.84067 8.02031 8.83599 7.29844C8.81724 6.55781 8.28755 6 7.42505 6Z" fill="#707D95"/>
<path d="M15.0329 9.46411C13.6923 9.46411 12.8532 10.1954 12.6985 10.711V9.53442H10.0688C10.1017 10.1579 10.0688 17.0204 10.0688 17.0204H12.6985V12.975C12.6985 12.7454 12.6892 12.5204 12.7548 12.361C12.9329 11.911 13.322 11.4422 14.0204 11.4422C14.9345 11.4422 15.347 12.136 15.347 13.1485V17.0204H18.0001V12.8579C18.0001 10.5422 16.697 9.46411 15.0329 9.46411Z" fill="#707D95"/>
</g>
<defs>
<clipPath id="clip0_330_7854">
<rect width="24" height="24" fill="white"/>
</clipPath>
</defs>
</svg>
