<svg width="24" height="24" viewBox="0 0 24 24" fill="none" xmlns="http://www.w3.org/2000/svg">
<g clip-path="url(#clip0_330_7875)">
<path d="M12 0C5.37188 0 0 5.37188 0 12C0 18.6281 5.37188 24 12 24C18.6281 24 24 18.6281 24 12C24 5.37188 18.6281 0 12 0ZM19.4906 19.4859C18.5156 20.4609 17.3859 21.225 16.125 21.7547C14.8219 22.3078 13.4344 22.5844 12 22.5844C10.5703 22.5844 9.18281 22.3031 7.875 21.7547C6.61406 21.2203 5.47969 20.4563 4.50937 19.4859C3.53437 18.5109 2.77031 17.3812 2.24063 16.1203C1.6875 14.8172 1.40625 13.4297 1.40625 12C1.40625 10.5703 1.6875 9.18281 2.23594 7.875C2.77031 6.61406 3.53437 5.47969 4.50469 4.50937C5.48437 3.53437 6.61406 2.77031 7.875 2.23594C9.18281 1.6875 10.5703 1.40625 12 1.40625C13.4297 1.40625 14.8172 1.6875 16.125 2.23594C17.3859 2.77031 18.5203 3.53438 19.4906 4.50469C20.4656 5.47969 21.2297 6.60937 21.7594 7.87031C22.3125 9.17344 22.5891 10.5609 22.5891 11.9953C22.5891 13.425 22.3078 14.8125 21.7594 16.1203C21.225 17.3812 20.4609 18.5156 19.4906 19.4859Z" fill="#707D95"/>
<path d="M17.6859 7.87966C17.2078 8.16091 16.6828 8.36716 16.1203 8.47966C15.6703 8.00154 15.0281 7.70154 14.3203 7.70154C12.9609 7.70154 11.8547 8.80779 11.8547 10.1672C11.8547 10.3594 11.8734 10.5469 11.9203 10.7297C9.87188 10.6265 8.05312 9.64685 6.83906 8.15154C6.62812 8.51716 6.50625 8.93904 6.50625 9.39373C6.50625 10.2469 6.94219 11.0015 7.60313 11.4469C7.2 11.4328 6.82031 11.3203 6.4875 11.1375V11.1656C6.4875 12.3609 7.33594 13.3594 8.46562 13.5844C8.25937 13.6406 8.03906 13.6734 7.81406 13.6734C7.65469 13.6734 7.5 13.6594 7.35 13.6312C7.66406 14.6109 8.57344 15.3234 9.65156 15.3422C8.80781 16.0031 7.74375 16.3969 6.59063 16.3969C6.39375 16.3969 6.19687 16.3875 6 16.364C7.09219 17.0625 8.38594 17.4703 9.77812 17.4703C14.3156 17.4703 16.7953 13.7109 16.7953 10.4531C16.7953 10.3453 16.7953 10.2375 16.7906 10.1344C17.2734 9.78279 17.6906 9.35154 18.0187 8.85466C17.5781 9.05154 17.1 9.18279 16.6031 9.24373C17.1141 8.93904 17.5031 8.45623 17.6859 7.87966Z" fill="#707D95"/>
</g>
<defs>
<clipPath id="clip0_330_7875">
<rect width="24" height="24" fill="white"/>
</clipPath>
</defs>
</svg>
