<svg width="25" height="24" viewBox="0 0 25 24" fill="none" xmlns="http://www.w3.org/2000/svg">
<g clip-path="url(#clip0_25_3014)">
<path d="M20.972 16.08C20.732 18.75 18.802 20.5 16.002 20.5H7.00195C4.24195 20.5 2.00195 18.26 2.00195 15.5V8.5C2.00195 5.78 3.64195 3.88 6.19195 3.56C6.45195 3.52 6.72195 3.5 7.00195 3.5H16.002C16.262 3.5 16.512 3.51 16.752 3.55C19.142 3.83 20.762 5.5 20.972 7.92C21.002 8.21 20.762 8.45 20.472 8.45H18.922C17.962 8.45 17.072 8.82 16.432 9.48C15.672 10.22 15.292 11.26 15.382 12.3C15.542 14.12 17.142 15.55 19.042 15.55H20.472C20.762 15.55 21.002 15.79 20.972 16.08Z" fill="#292D32"/>
<path d="M22.0022 10.97V13.03C22.0022 13.58 21.5622 14.03 21.0022 14.05H19.0422C17.9622 14.05 16.9722 13.26 16.8822 12.18C16.8222 11.55 17.0622 10.96 17.4822 10.55C17.8522 10.17 18.3622 9.94995 18.9222 9.94995H21.0022C21.5622 9.96995 22.0022 10.42 22.0022 10.97Z" fill="#292D32"/>
</g>
<defs>
<clipPath id="clip0_25_3014">
<rect width="24" height="24" fill="white" transform="translate(0.00195312)"/>
</clipPath>
</defs>
</svg>
