<svg width="37" height="37" viewBox="0 0 37 37" fill="none" xmlns="http://www.w3.org/2000/svg">
<path d="M18.125 36.25C28.1352 36.25 36.25 28.1352 36.25 18.125C36.25 8.11484 28.1352 0 18.125 0C8.11484 0 0 8.11484 0 18.125C0 28.1352 8.11484 36.25 18.125 36.25Z" fill="#3671E9"/>
<path d="M18.5164 8.23843L11.0164 21.5236C9.92428 20.9675 9.01013 20.1179 8.37624 19.0681C7.74234 18.0182 7.41538 16.8149 7.43095 15.5894C7.43095 11.6415 10.5448 8.24955 16.2877 8.24955L18.5164 8.23843Z" fill="white"/>
<path d="M18.5165 27.9404H25.565C25.565 27.9404 28.819 24.444 28.819 20.0467C28.819 14.8354 23.6678 14.7464 23.6678 14.7464L24.1015 13.9969C24.4351 13.4097 24.6086 12.7469 24.6064 12.073C24.6042 11.399 24.424 10.7362 24.0837 10.1535C23.7456 9.57073 23.2585 9.08586 22.6736 8.75C22.0886 8.41415 21.4258 8.23621 20.7519 8.23844L16.8284 15.2758C17.876 15.387 22.4934 16.1121 22.4934 20.198C22.4934 24.1148 18.5165 27.9404 18.5165 27.9404Z" fill="white"/>
<path d="M9.78198 27.9404C10.3358 28.0027 10.8941 28.0271 11.4524 28.0138C15.4759 28.0138 20.3247 25.3448 20.3247 20.5738C20.3247 17.5445 16.7815 17.262 15.7339 17.2375L9.78198 27.9404Z" fill="white"/>
</svg>
