<svg width="171" height="27" viewBox="0 0 171 27" fill="none" xmlns="http://www.w3.org/2000/svg">
<path d="M0.0672028 19V0.451H5.12371C11.3745 0.451 14.9318 4.46572 14.9318 9.7255C14.9318 15.0107 10.9171 19 5.27617 19H0.0672028ZM4.71716 3.65261H3.52291V15.7984H4.86961C8.93515 15.7984 11.4761 13.1812 11.4761 9.7255C11.4761 6.16816 9.31629 3.65261 4.71716 3.65261ZM18.6019 25.8606L21.7273 18.2631L15.629 4.13539H19.288L23.4297 14.1468L27.3428 4.13539H30.951L22.083 25.8606H18.6019ZM32.1748 19V0.196905H35.6305V19H32.1748ZM44.4443 19.3049C40.8615 19.3049 37.1263 16.459 37.1263 11.5804C37.1263 6.65094 40.7345 3.83048 44.4951 3.83048C46.4516 3.83048 48.1795 4.61817 49.2721 5.91406V4.13539H52.7024V19H49.2721V17.0689C48.1795 18.4664 46.4008 19.3049 44.4443 19.3049ZM45.0033 16.1541C47.5696 16.1541 49.4499 14.0959 49.4499 11.5296C49.4499 8.98862 47.5696 6.95585 45.0033 6.95585C42.4623 6.95585 40.5058 8.96321 40.5058 11.5296C40.5058 14.1214 42.4623 16.1541 45.0033 16.1541ZM54.7804 19V4.13539H58.1853V5.96488C59.1763 4.66899 60.7008 3.83048 62.632 3.83048C66.3672 3.83048 68.527 6.14275 68.527 10.1829V19H65.0459V10.5386C65.0459 8.22633 63.9279 6.8034 61.6918 6.8034C59.7353 6.8034 58.2107 8.22633 58.2107 10.8435V19H54.7804ZM70.5887 19V0.451H74.5018L82.5312 13.0796V0.451H85.9869V19H82.3026L74.0444 5.96488V19H70.5887ZM99.7444 18.7459V17.0181C98.6518 18.441 96.8986 19.3049 94.8912 19.3049C91.3085 19.3049 87.5733 16.459 87.5733 11.5804C87.5733 6.65094 91.1814 3.83048 94.942 3.83048C96.8986 3.83048 98.6264 4.6944 99.719 6.04111V4.13539H103.149V18.6189C103.149 22.786 100.481 26.1909 95.4756 26.1909C91.6134 26.1909 89.1995 24.3868 87.8528 21.9221L90.9019 20.0672C91.9945 22.0746 93.1634 23.0401 95.5265 23.0401C98.1182 23.0401 99.7444 21.0074 99.7444 18.7459ZM95.4502 16.1541C98.0166 16.1541 99.8969 14.0959 99.8969 11.5296C99.8969 8.98862 98.0166 6.95585 95.4502 6.95585C92.9093 6.95585 90.9527 8.96321 90.9527 11.5296C90.9527 14.1214 92.9093 16.1541 95.4502 16.1541ZM118.544 4.13539V19H115.139V17.2976C114.199 18.5426 112.776 19.3049 110.87 19.3049C107.313 19.3049 105.153 16.9926 105.153 12.9525V4.13539H108.634V12.5968C108.634 14.9091 109.65 16.332 111.81 16.332C113.716 16.332 115.113 14.9091 115.113 12.2919V4.13539H118.544ZM122.672 25.8606L125.797 18.2631L119.699 4.13539H123.358L127.5 14.1468L131.413 4.13539H135.021L126.153 25.8606H122.672ZM142.348 19.3049C137.673 19.3049 134.497 15.9 134.497 11.6058C134.497 7.26077 137.876 3.83048 142.221 3.83048C146.642 3.83048 149.869 7.0829 149.869 11.4788V12.7747H137.774C138.257 14.8836 139.909 16.2812 142.348 16.2812C144.279 16.2812 145.753 15.2648 146.465 13.664L149.285 15.2902C147.989 17.7041 145.702 19.3049 142.348 19.3049ZM142.221 6.85422C140.163 6.85422 138.562 8.07388 137.952 9.90337H146.388C145.88 7.89601 144.356 6.85422 142.221 6.85422ZM151.406 19V4.13539H154.811V5.96488C155.802 4.66899 157.327 3.83048 159.258 3.83048C162.993 3.83048 165.153 6.14275 165.153 10.1829V19H161.672V10.5386C161.672 8.22633 160.554 6.8034 158.318 6.8034C156.361 6.8034 154.837 8.22633 154.837 10.8435V19H151.406ZM166.706 17.2467C166.706 16.0017 167.494 15.1632 168.79 15.1632C170.086 15.1632 170.848 16.0017 170.848 17.2467C170.848 18.4664 170.061 19.3049 168.765 19.3049C167.469 19.3049 166.706 18.4664 166.706 17.2467Z" fill="black"/>
</svg>
