<svg width="998" height="203" viewBox="0 0 998 203" fill="none" xmlns="http://www.w3.org/2000/svg">
<g clip-path="url(#clip0_215_4)">
<path d="M101.5 203C157.557 203 203 157.557 203 101.5C203 45.4431 157.557 0 101.5 0C45.4431 0 0 45.4431 0 101.5C0 157.557 45.4431 203 101.5 203Z" fill="#3671E9"/>
<path d="M103.692 46.1353L61.6923 120.532C55.5764 117.42 50.4541 112.658 46.9055 106.785C43.3569 100.912 41.5239 94.1622 41.614 87.3007C41.614 65.1922 59.0517 46.1975 91.2119 46.1975L103.692 46.1353Z" fill="white"/>
<path d="M103.692 156.466H143.164C143.164 156.466 161.386 136.886 161.386 112.262C161.386 83.0783 132.539 82.5801 132.539 82.5801L134.968 78.3826C136.837 75.1005 137.811 71.3853 137.794 67.6085C137.776 63.8318 136.767 60.1257 134.868 56.8611C132.969 53.5964 130.247 50.8875 126.972 49.0052C123.698 47.123 119.987 46.1333 116.21 46.1353V46.1353L94.2383 85.5445C100.105 86.1673 125.962 90.2278 125.962 113.109C125.962 135.043 103.692 156.466 103.692 156.466Z" fill="white"/>
<path d="M54.7795 156.466C57.8845 156.816 61.0099 156.954 64.1336 156.877C86.6657 156.877 113.819 141.931 113.819 115.214C113.819 98.2491 93.9771 96.6673 88.1105 96.5303L54.7795 156.466Z" fill="white"/>
<path d="M264 144.154H290.586C307.845 144.154 318.672 136.435 318.672 120.998C318.672 112.315 314.598 106.312 307.309 102.989C312.99 99.6656 315.885 94.52 315.885 87.7664C315.885 73.2944 306.13 65.8976 288.656 65.8976H264V144.154ZM289.942 110.707C300.77 110.707 303.986 114.245 303.986 120.677C303.986 127.109 299.483 130.754 290.586 130.754H278.579V110.707H289.942ZM288.656 79.2976C297.661 79.2976 301.198 81.8704 301.198 87.7664C301.198 93.3408 297.982 97.0928 288.656 97.0928H278.579V79.2976H288.656Z" fill="white"/>
<path d="M330.49 144.154H345.069V81.4416H330.49V144.154ZM328.668 66.112C328.668 71.5792 331.884 75.1168 337.78 75.1168C343.461 75.1168 346.892 71.5792 346.892 66.112C346.892 60.6448 343.461 57 337.78 57C332.205 57 328.668 60.6448 328.668 66.112Z" fill="white"/>
<path d="M389.221 145.44C407.231 145.44 421.703 130.861 421.703 112.851C421.703 94.52 407.231 80.1552 389.221 80.1552C371.105 80.1552 356.74 94.52 356.74 112.851C356.74 130.861 371.105 145.44 389.221 145.44ZM389.221 131.826C378.823 131.826 370.997 123.25 370.997 112.851C370.997 102.238 378.823 93.7696 389.221 93.7696C399.513 93.7696 407.445 102.238 407.445 112.851C407.445 123.25 399.513 131.826 389.221 131.826Z" fill="white"/>
<path d="M433.44 144.154H447.912V109.742C447.912 98.7008 454.344 92.6976 462.598 92.6976C472.032 92.6976 476.748 98.7008 476.748 108.456V144.154H491.435V106.955C491.435 89.9104 482.323 80.1552 466.564 80.1552C458.417 80.1552 451.985 83.6928 447.804 89.16V81.4416H433.44V144.154Z" fill="white"/>
<path d="M505.493 144.154H520.072V89.16L554.912 144.154H570.456V65.8976H555.877V119.176L522.002 65.8976H505.493V144.154Z" fill="white"/>
<path d="M615.634 145.44C629.784 145.44 639.432 138.686 644.899 128.502L633 121.642C629.998 128.395 623.781 132.683 615.634 132.683C605.342 132.683 598.374 126.787 596.338 117.89H647.365V112.422C647.365 93.8768 633.75 80.1552 615.098 80.1552C596.766 80.1552 582.509 94.6272 582.509 112.958C582.509 131.075 595.909 145.44 615.634 145.44ZM615.098 92.912C624.102 92.912 630.534 97.3072 632.678 105.776H597.088C599.661 98.0576 606.414 92.912 615.098 92.912Z" fill="white"/>
<path d="M654.236 94.4128H664.956V117.997C664.956 137.936 670.852 144.154 690.255 144.154H692.292V130.539C681.143 130.539 679.535 128.824 679.535 117.89V94.4128H692.292V81.4416H679.535V61.9312L664.956 71.9008V81.4416H654.236V94.4128Z" fill="white"/>
<path d="M722.793 144.154H737.051L753.345 100.738L769.211 144.154H783.147L805.123 81.4416H790.437L776.072 124.75L760.635 81.4416H746.27L730.512 124.643L716.683 81.4416H701.889L722.793 144.154Z" fill="white"/>
<path d="M842.33 145.44C860.339 145.44 874.811 130.861 874.811 112.851C874.811 94.52 860.339 80.1552 842.33 80.1552C824.213 80.1552 809.848 94.52 809.848 112.851C809.848 130.861 824.213 145.44 842.33 145.44ZM842.33 131.826C831.931 131.826 824.106 123.25 824.106 112.851C824.106 102.238 831.931 93.7696 842.33 93.7696C852.621 93.7696 860.554 102.238 860.554 112.851C860.554 123.25 852.621 131.826 842.33 131.826Z" fill="white"/>
<path d="M886.548 144.154H901.02V110.707C901.02 99.88 905.415 95.3776 913.884 95.3776C918.065 95.3776 920.423 96.4496 922.567 97.8432L928.034 84.1216C925.14 82.5136 921.603 81.4416 916.993 81.4416C909.167 81.4416 903.807 84.5504 900.913 90.768V81.4416H886.548V144.154Z" fill="white"/>
<path d="M938.075 144.154H952.547V128.181L962.517 117.139L981.277 144.154H997.464L972.379 108.563L996.606 81.4416H979.24L952.547 111.672V64.8256H938.075V144.154Z" fill="white"/>
</g>
<defs>
<clipPath id="clip0_215_4">
<rect width="997.464" height="203" fill="white"/>
</clipPath>
</defs>
</svg>
